WantedSans-Split-SymbolBase.glyphspackage
{
category = "SF-Symbol";
color = 3;
glyphname = iconCircleFill.medium;
layers = (
{
layerId = m01;
metricWidth = "=baseSymbol.medium";
shapes = (
{
closed = 1;
nodes = (
(868,-149,o),
(1088,71,o),
(1088,340,cs),
(1088,609,o),
(868,829,o),
(600,829,cs),
(331,829,o),
(111,609,o),
(111,340,cs),
(111,71,o),
(331,-149,o),
(600,-149,cs)
);
}
);
userData = {
RMXScaler = {
height = 125;
verticalShift = -85;
width = 125;
};
};
width = 1200;
},
{
layerId = "94F54C43-8AEE-4ED6-B3C2-2A9D33534E61";
metricWidth = "=baseSymbol.medium";
shapes = (
{
closed = 1;
nodes = (
(886,-181,o),
(1120,53,o),
(1120,340,cs),
(1120,627,o),
(886,861,o),
(600,861,cs),
(313,861,o),
(79,627,o),
(79,340,cs),
(79,53,o),
(313,-181,o),
(600,-181,cs)
);
}
);
userData = {
RMXScaler = {
height = 125;
verticalShift = -85;
width = 125;
};
};
width = 1200;
}
);
note = "# Required RMX Scaler

$SYMBOL_MEDIUM
$SYMBOL_FILL
$SYMBOL_CIRCLE";
subCategory = Other;
unicode = 1048577;
userData = {
RMXScaler = {
source = iconCircleFill.small;
};
};
}
{
category = "SF-Symbol";
color = 3;
glyphname = iconSquare.medium;
layers = (
{
layerId = m01;
metricWidth = "=baseSymbol.medium";
shapes = (
{
closed = 1;
nodes = (
(870,-99,ls),
(986,-99,o),
(1038,-46,o),
(1038,70,cs),
(1038,610,ls),
(1038,726,o),
(986,779,o),
(870,779,cs),
(330,779,ls),
(213,779,o),
(161,726,o),
(161,610,cs),
(161,70,ls),
(161,-46,o),
(213,-99,o),
(330,-99,cs)
);
},
{
closed = 1;
nodes = (
(254,-21,o),
(238,-6,o),
(238,70,cs),
(238,610,ls),
(238,686,o),
(254,701,o),
(330,701,cs),
(870,701,ls),
(945,701,o),
(961,686,o),
(961,610,cs),
(961,70,ls),
(961,-6,o),
(945,-21,o),
(870,-21,cs),
(330,-21,ls)
);
}
);
userData = {
RMXScaler = {
height = 125;
verticalShift = -85;
width = 125;
};
};
width = 1200;
},
{
layerId = "94F54C43-8AEE-4ED6-B3C2-2A9D33534E61";
metricWidth = "=baseSymbol.medium";
shapes = (
{
closed = 1;
nodes = (
(870,-131,ls),
(1004,-131,o),
(1070,-64,o),
(1070,70,cs),
(1070,610,ls),
(1070,744,o),
(1004,811,o),
(870,811,cs),
(330,811,ls),
(195,811,o),
(129,744,o),
(129,610,cs),
(129,70,ls),
(129,-64,o),
(195,-131,o),
(330,-131,cs)
);
},
{
closed = 1;
nodes = (
(284,11,o),
(270,24,o),
(270,70,cs),
(270,610,ls),
(270,658,o),
(284,669,o),
(330,669,cs),
(870,669,ls),
(917,669,o),
(929,658,o),
(929,610,cs),
(929,70,ls),
(929,24,o),
(917,11,o),
(870,11,cs),
(330,11,ls)
);
}
);
userData = {
RMXScaler = {
height = 125;
verticalShift = -85;
width = 125;
};
};
width = 1200;
}
);
note = "# Required RMX Scaler

$SYMBOL_ICON
$SYMBOL_MEDIUM
$SYMBOL_OUTLINE
$SYMBOL_SQUARE";
subCategory = Other;
unicode = 1048722;
userData = {
RMXScaler = {
source = iconSquare.small;
};
};
}
{
category = "SF-Symbol";
color = 3;
glyphname = iconSquareFill.medium;
layers = (
{
layerId = m01;
metricWidth = "=baseSymbol.medium";
shapes = (
{
closed = 1;
nodes = (
(870,-99,ls),
(986,-99,o),
(1038,-46,o),
(1038,70,cs),
(1038,610,ls),
(1038,726,o),
(986,779,o),
(870,779,cs),
(330,779,ls),
(213,779,o),
(161,726,o),
(161,610,cs),
(161,70,ls),
(161,-46,o),
(213,-99,o),
(330,-99,cs)
);
}
);
userData = {
RMXScaler = {
height = 125;
verticalShift = -85;
width = 125;
};
};
width = 1200;
},
{
layerId = "94F54C43-8AEE-4ED6-B3C2-2A9D33534E61";
metricWidth = "=baseSymbol.medium";
shapes = (
{
closed = 1;
nodes = (
(870,-131,ls),
(1004,-131,o),
(1070,-64,o),
(1070,70,cs),
(1070,610,ls),
(1070,744,o),
(1004,811,o),
(870,811,cs),
(330,811,ls),
(195,811,o),
(129,744,o),
(129,610,cs),
(129,70,ls),
(129,-64,o),
(195,-131,o),
(330,-131,cs)
);
}
);
userData = {
RMXScaler = {
height = 125;
verticalShift = -85;
width = 125;
};
};
width = 1200;
}
);
note = "# Required RMX Scaler

$SYMBOL_MEDIUM
$SYMBOL_FILL
$SYMBOL_SQUARE";
subCategory = Other;
unicode = 1048723;
userData = {
RMXScaler = {
source = iconSquareFill.small;
};
};
}
{
color = 3;
glyphname = iconArrowUp.medium;
layers = (
{
layerId = m01;
metricWidth = "=baseSymbol.medium";
shapes = (
{
closed = 1;
nodes = (
(621,-99,o),
(638,-81,o),
(638,-60,cs),
(638,647,l),
(898,388,ls),
(913,373,o),
(935,373,o),
(951,388,cs),
(966,403,o),
(968,425,o),
(951,442,cs),
(626,767,ls),
(611,782,o),
(589,783,o),
(573,767,cs),
(248,442,ls),
(230,424,o),
(235,401,o),
(248,388,cs),
(263,373,o),
(286,373,o),
(301,388,cs),
(561,647,l),
(561,-60,ls),
(561,-81,o),
(578,-99,o),
(600,-99,cs)
);
}
);
userData = {
RMXScaler = {
height = 125;
verticalShift = -85;
width = 125;
};
};
width = 1200;
},
{
layerId = "94F54C43-8AEE-4ED6-B3C2-2A9D33534E61";
metricWidth = "=baseSymbol.medium";
shapes = (
{
closed = 1;
nodes = (
(639,-131,o),
(670,-99,o),
(670,-60,cs),
(670,570,l),
(875,365,ls),
(902,338,o),
(946,337,o),
(974,365,cs),
(1001,392,o),
(1003,436,o),
(974,465,cs),
(649,790,ls),
(622,817,o),
(578,818,o),
(550,790,cs),
(225,465,ls),
(198,438,o),
(196,393,o),
(225,365,cs),
(253,337,o),
(298,339,o),
(324,365,cs),
(529,570,l),
(529,-60,ls),
(529,-99,o),
(560,-131,o),
(600,-131,cs)
);
}
);
userData = {
RMXScaler = {
height = 125;
verticalShift = -85;
width = 125;
};
};
width = 1200;
}
);
note = "# Required RMX Scaler

$SYMBOL_MEDIUM";
unicode = 1048872;
userData = {
RMXScaler = {
source = iconArrowUp.small;
};
};
}
{
category = "SF-Symbol";
color = 3;
glyphname = iconArrowDown.medium;
layers = (
{
layerId = m01;
metricWidth = "=baseSymbol.medium";
shapes = (
{
closed = 1;
nodes = (
(589,-103,o),
(611,-102,o),
(626,-87,cs),
(951,238,ls),
(966,253,o),
(968,276,o),
(951,292,cs),
(936,307,o),
(913,307,o),
(898,292,cs),
(638,33,l),
(638,740,ls),
(638,761,o),
(621,779,o),
(600,779,cs),
(578,779,o),
(561,761,o),
(561,740,cs),
(561,33,l),
(301,292,ls),
(284,309,o),
(261,305,o),
(248,292,cs),
(233,277,o),
(231,255,o),
(248,238,cs),
(573,-87,ls)
);
}
);
userData = {
RMXScaler = {
height = 125;
verticalShift = -85;
width = 125;
};
};
width = 1200;
},
{
layerId = "94F54C43-8AEE-4ED6-B3C2-2A9D33534E61";
metricWidth = "=baseSymbol.medium";
shapes = (
{
closed = 1;
nodes = (
(578,-138,o),
(622,-137,o),
(649,-110,cs),
(974,215,ls),
(1001,242,o),
(1003,287,o),
(974,315,cs),
(946,343,o),
(901,341,o),
(875,315,cs),
(670,110,l),
(670,740,ls),
(670,779,o),
(639,811,o),
(600,811,cs),
(560,811,o),
(529,779,o),
(529,740,cs),
(529,110,l),
(324,315,ls),
(298,341,o),
(254,343,o),
(225,315,cs),
(198,288,o),
(196,244,o),
(225,215,cs),
(550,-110,ls)
);
}
);
userData = {
RMXScaler = {
height = 125;
verticalShift = -85;
width = 125;
};
};
width = 1200;
}
);
note = "# Required RMX Scaler

$SYMBOL_MEDIUM";
subCategory = Other;
unicode = 1048873;
userData = {
RMXScaler = {
source = iconArrowDown.small;
};
};
}
{
category = "SF-Symbol";
color = 3;
glyphname = iconArrowLeft.medium;
layers = (
{
layerId = m01;
metricWidth = "=baseSymbol.medium";
shapes = (
{
closed = 1;
nodes = (
(513,-27,o),
(535,-28,o),
(551,-12,cs),
(566,3,o),
(568,25,o),
(551,42,cs),
(293,301,l),
(1000,301,ls),
(1021,301,o),
(1038,319,o),
(1038,340,cs),
(1038,361,o),
(1021,379,o),
(1000,379,cs),
(293,379,l),
(551,638,ls),
(566,653,o),
(568,676,o),
(551,692,cs),
(536,707,o),
(514,708,o),
(498,692,cs),
(173,367,ls),
(157,351,o),
(157,329,o),
(173,313,cs),
(498,-12,ls)
);
}
);
userData = {
RMXScaler = {
height = 125;
verticalShift = -85;
width = 125;
};
};
width = 1200;
},
{
layerId = "94F54C43-8AEE-4ED6-B3C2-2A9D33534E61";
metricWidth = "=baseSymbol.medium";
shapes = (
{
closed = 1;
nodes = (
(502,-62,o),
(546,-63,o),
(574,-35,cs),
(601,-8,o),
(603,36,o),
(574,65,cs),
(370,269,l),
(1000,269,ls),
(1039,269,o),
(1070,300,o),
(1070,340,cs),
(1070,380,o),
(1039,411,o),
(1000,411,cs),
(370,411,l),
(574,615,ls),
(601,642,o),
(603,687,o),
(574,715,cs),
(546,743,o),
(501,741,o),
(475,715,cs),
(150,390,ls),
(122,362,o),
(122,318,o),
(150,290,cs),
(475,-35,ls)
);
}
);
userData = {
RMXScaler = {
height = 125;
verticalShift = -85;
width = 125;
};
};
width = 1200;
}
);
note = "# Required RMX Scaler

$SYMBOL_MEDIUM";
subCategory = Other;
unicode = 1048874;
userData = {
RMXScaler = {
source = iconArrowLeft.small;
};
};
}
{
color = 3;
glyphname = iconArrowRight.medium;
layers = (
{
layerId = m01;
metricWidth = "=baseSymbol.medium";
shapes = (
{
closed = 1;
nodes = (
(663,-27,o),
(686,-27,o),
(701,-12,cs),
(1026,313,ls),
(1042,329,o),
(1042,351,o),
(1026,367,cs),
(701,692,ls),
(686,707,o),
(664,707,o),
(648,692,cs),
(633,677,o),
(631,655,o),
(648,638,cs),
(906,379,l),
(200,379,ls),
(178,379,o),
(161,362,o),
(161,340,cs),
(161,318,o),
(178,301,o),
(200,301,cs),
(906,301,l),
(648,42,ls),
(631,25,o),
(634,2,o),
(648,-12,cs)
);
}
);
userData = {
RMXScaler = {
height = 125;
verticalShift = -85;
width = 125;
};
};
width = 1200;
},
{
layerId = "94F54C43-8AEE-4ED6-B3C2-2A9D33534E61";
metricWidth = "=baseSymbol.medium";
shapes = (
{
closed = 1;
nodes = (
(653,-63,o),
(698,-61,o),
(724,-35,cs),
(1049,290,ls),
(1077,318,o),
(1077,362,o),
(1049,390,cs),
(724,715,ls),
(698,741,o),
(654,743,o),
(625,715,cs),
(598,688,o),
(596,644,o),
(625,615,cs),
(829,411,l),
(200,411,ls),
(160,411,o),
(129,380,o),
(129,340,cs),
(129,300,o),
(160,269,o),
(200,269,cs),
(829,269,l),
(625,65,ls),
(598,38,o),
(596,-7,o),
(625,-35,cs)
);
}
);
userData = {
RMXScaler = {
height = 125;
verticalShift = -85;
width = 125;
};
};
width = 1200;
}
);
note = "# Required RMX Scaler

$SYMBOL_MEDIUM";
unicode = 1048875;
userData = {
RMXScaler = {
source = iconArrowRight.small;
};
};
}
{
color = 3;
glyphname = iconArrowTopLeft.medium;
layers = (
{
layerId = m01;
metricWidth = "=baseSymbol.medium";
shapes = (
{
closed = 1;
nodes = (
(863,23,o),
(885,22,o),
(901,38,cs),
(916,53,o),
(918,75,o),
(901,92,cs),
(418,576,l),
(775,576,ls),
(796,576,o),
(813,593,o),
(813,615,cs),
(813,637,o),
(796,654,o),
(775,654,cs),
(325,654,ls),
(303,654,o),
(286,636,o),
(286,615,cs),
(286,165,ls),
(286,144,o),
(303,126,o),
(325,126,cs),
(346,126,o),
(363,144,o),
(363,165,cs),
(363,522,l),
(848,38,ls)
);
}
);
userData = {
RMXScaler = {
height = 125;
verticalShift = -85;
width = 125;
};
};
width = 1200;
},
{
layerId = "94F54C43-8AEE-4ED6-B3C2-2A9D33534E61";
metricWidth = "=baseSymbol.medium";
shapes = (
{
closed = 1;
nodes = (
(852,-12,o),
(896,-13,o),
(924,15,cs),
(951,42,o),
(953,86,o),
(924,115,cs),
(495,544,l),
(775,544,ls),
(814,544,o),
(845,575,o),
(845,615,cs),
(845,655,o),
(814,686,o),
(775,686,cs),
(325,686,ls),
(285,686,o),
(254,654,o),
(254,615,cs),
(254,165,ls),
(254,126,o),
(285,94,o),
(325,94,cs),
(364,94,o),
(395,126,o),
(395,165,cs),
(395,445,l),
(825,15,ls)
);
}
);
userData = {
RMXScaler = {
height = 125;
verticalShift = -85;
width = 125;
};
};
width = 1200;
}
);
note = "# Required RMX Scaler

$SYMBOL_MEDIUM";
unicode = 1048878;
userData = {
RMXScaler = {
source = iconArrowTopLeft.small;
};
};
}
{
color = 3;
glyphname = iconArrowTopRight.medium;
layers = (
{
layerId = m01;
metricWidth = "=baseSymbol.medium";
shapes = (
{
closed = 1;
nodes = (
(313,23,o),
(336,23,o),
(351,38,cs),
(836,522,l),
(836,165,ls),
(836,144,o),
(853,126,o),
(875,126,cs),
(896,126,o),
(913,144,o),
(913,165,cs),
(913,615,ls),
(913,636,o),
(896,654,o),
(875,654,cs),
(425,654,ls),
(403,654,o),
(386,637,o),
(386,615,cs),
(386,593,o),
(403,576,o),
(425,576,cs),
(781,576,l),
(298,92,ls),
(281,75,o),
(284,52,o),
(298,38,cs)
);
}
);
userData = {
RMXScaler = {
height = 125;
verticalShift = -85;
width = 125;
};
};
width = 1200;
},
{
layerId = "94F54C43-8AEE-4ED6-B3C2-2A9D33534E61";
metricWidth = "=baseSymbol.medium";
shapes = (
{
closed = 1;
nodes = (
(303,-13,o),
(348,-11,o),
(374,15,cs),
(804,445,l),
(804,165,ls),
(804,126,o),
(835,94,o),
(875,94,cs),
(914,94,o),
(945,126,o),
(945,165,cs),
(945,615,ls),
(945,654,o),
(914,686,o),
(875,686,cs),
(425,686,ls),
(385,686,o),
(354,655,o),
(354,615,cs),
(354,575,o),
(385,544,o),
(425,544,cs),
(704,544,l),
(275,115,ls),
(248,88,o),
(246,43,o),
(275,15,cs)
);
}
);
userData = {
RMXScaler = {
height = 125;
verticalShift = -85;
width = 125;
};
};
width = 1200;
}
);
note = "# Required RMX Scaler

$SYMBOL_MEDIUM";
unicode = 1048879;
userData = {
RMXScaler = {
source = iconArrowTopRight.small;
};
};
}
{
category = "SF-Symbol";
color = 3;
glyphname = iconArrowBottomLeft.medium;
layers = (
{
layerId = m01;
metricWidth = "=baseSymbol.medium";
shapes = (
{
closed = 1;
nodes = (
(775,26,ls),
(796,26,o),
(813,43,o),
(813,65,cs),
(813,87,o),
(796,104,o),
(775,104,cs),
(418,104,l),
(901,588,ls),
(916,603,o),
(918,626,o),
(901,642,cs),
(886,657,o),
(863,657,o),
(848,642,cs),
(363,158,l),
(363,515,ls),
(363,536,o),
(346,554,o),
(325,554,cs),
(303,554,o),
(286,536,o),
(286,515,cs),
(286,65,ls),
(286,44,o),
(303,26,o),
(325,26,cs)
);
}
);
userData = {
RMXScaler = {
height = 125;
verticalShift = -85;
width = 125;
};
};
width = 1200;
},
{
layerId = "94F54C43-8AEE-4ED6-B3C2-2A9D33534E61";
metricWidth = "=baseSymbol.medium";
shapes = (
{
closed = 1;
nodes = (
(775,-6,ls),
(814,-6,o),
(845,25,o),
(845,65,cs),
(845,105,o),
(814,136,o),
(775,136,cs),
(495,136,l),
(924,565,ls),
(951,592,o),
(953,637,o),
(924,665,cs),
(896,693,o),
(851,691,o),
(825,665,cs),
(395,235,l),
(395,515,ls),
(395,554,o),
(364,586,o),
(325,586,cs),
(285,586,o),
(254,554,o),
(254,515,cs),
(254,65,ls),
(254,26,o),
(285,-6,o),
(325,-6,cs)
);
}
);
userData = {
RMXScaler = {
height = 125;
verticalShift = -85;
width = 125;
};
};
width = 1200;
}
);
note = "# Required RMX Scaler

$SYMBOL_ICON
$SYMBOL_MEDIUM";
subCategory = Other;
unicode = 1048880;
userData = {
RMXScaler = {
source = iconArrowBottomLeft.small;
};
};
}
{
category = "SF-Symbol";
color = 3;
glyphname = iconArrowBottomRight.medium;
layers = (
{
layerId = m01;
metricWidth = "=baseSymbol.medium";
shapes = (
{
closed = 1;
nodes = (
(875,26,ls),
(896,26,o),
(913,44,o),
(913,65,cs),
(913,515,ls),
(913,536,o),
(896,554,o),
(875,554,cs),
(853,554,o),
(836,536,o),
(836,515,cs),
(836,158,l),
(351,642,ls),
(336,657,o),
(314,657,o),
(298,642,cs),
(283,627,o),
(281,605,o),
(298,588,cs),
(781,104,l),
(425,104,ls),
(403,104,o),
(386,87,o),
(386,65,cs),
(386,43,o),
(403,26,o),
(425,26,cs)
);
}
);
userData = {
RMXScaler = {
height = 125;
verticalShift = -85;
width = 125;
};
};
width = 1200;
},
{
layerId = "94F54C43-8AEE-4ED6-B3C2-2A9D33534E61";
metricWidth = "=baseSymbol.medium";
shapes = (
{
closed = 1;
nodes = (
(875,-6,ls),
(914,-6,o),
(945,26,o),
(945,65,cs),
(945,515,ls),
(945,554,o),
(914,586,o),
(875,586,cs),
(835,586,o),
(804,554,o),
(804,515,cs),
(804,235,l),
(374,665,ls),
(348,691,o),
(304,693,o),
(275,665,cs),
(248,638,o),
(246,594,o),
(275,565,cs),
(704,136,l),
(425,136,ls),
(385,136,o),
(354,105,o),
(354,65,cs),
(354,25,o),
(385,-6,o),
(425,-6,cs)
);
}
);
userData = {
RMXScaler = {
height = 125;
verticalShift = -85;
width = 125;
};
};
width = 1200;
}
);
note = "# Required RMX Scaler

$SYMBOL_MEDIUM";
subCategory = Other;
unicode = 1048881;
userData = {
RMXScaler = {
source = iconArrowBottomRight.small;
};
};
}
{
category = "SF-Symbol";
color = 3;
glyphname = iconArrowLeftRight.medium;
layers = (
{
layerId = m01;
metricWidth = "=baseSymbol.medium";
shapes = (
{
closed = 1;
nodes = (
(413,48,o),
(435,47,o),
(451,63,cs),
(466,78,o),
(468,100,o),
(451,117,cs),
(268,301,l),
(931,301,l),
(748,117,ls),
(732,101,o),
(733,78,o),
(748,63,cs),
(763,48,o),
(786,48,o),
(801,63,cs),
(1051,313,ls),
(1067,329,o),
(1067,351,o),
(1051,367,cs),
(801,617,ls),
(786,632,o),
(764,632,o),
(748,617,cs),
(733,602,o),
(731,580,o),
(748,563,cs),
(931,379,l),
(268,379,l),
(451,563,ls),
(466,578,o),
(468,601,o),
(451,617,cs),
(436,632,o),
(414,633,o),
(398,617,cs),
(148,367,ls),
(132,351,o),
(132,329,o),
(148,313,cs),
(398,63,ls)
);
}
);
userData = {
RMXScaler = {
height = 125;
verticalShift = -85;
width = 125;
};
};
width = 1200;
},
{
layerId = "94F54C43-8AEE-4ED6-B3C2-2A9D33534E61";
metricWidth = "=baseSymbol.medium";
shapes = (
{
closed = 1;
nodes = (
(402,13,o),
(446,12,o),
(474,40,cs),
(501,67,o),
(503,111,o),
(474,140,cs),
(345,269,l),
(854,269,l),
(725,140,ls),
(698,113,o),
(696,68,o),
(725,40,cs),
(753,12,o),
(798,14,o),
(824,40,cs),
(1074,290,ls),
(1102,318,o),
(1102,362,o),
(1074,390,cs),
(824,640,ls),
(798,666,o),
(754,668,o),
(725,640,cs),
(698,613,o),
(696,569,o),
(725,540,cs),
(854,411,l),
(345,411,l),
(474,540,ls),
(501,567,o),
(503,612,o),
(474,640,cs),
(446,668,o),
(401,666,o),
(375,640,cs),
(125,390,ls),
(97,362,o),
(97,318,o),
(125,290,cs),
(375,40,ls)
);
}
);
userData = {
RMXScaler = {
height = 125;
verticalShift = -85;
width = 125;
};
};
width = 1200;
}
);
note = "# Required RMX Scaler

$SYMBOL_ICON
$SYMBOL_MEDIUM";
subCategory = Other;
unicode = 1048894;
userData = {
RMXScaler = {
source = iconArrowLeftRight.small;
};
};
}
{
color = 3;
glyphname = iconClose.medium;
layers = (
{
layerId = m01;
metricWidth = "=baseSymbol.medium";
shapes = (
{
closed = 1;
nodes = (
(251,-39,o),
(273,-40,o),
(289,-24,cs),
(600,285,l),
(911,-24,ls),
(926,-39,o),
(949,-41,o),
(965,-24,cs),
(981,-8,o),
(978,15,o),
(964,29,cs),
(655,340,l),
(964,651,ls),
(979,666,o),
(980,688,o),
(965,704,cs),
(948,722,o),
(924,717,o),
(911,704,cs),
(600,395,l),
(289,704,ls),
(273,720,o),
(251,719,o),
(236,704,cs),
(221,689,o),
(220,667,o),
(236,651,cs),
(545,340,l),
(236,29,ls),
(220,13,o),
(221,-9,o),
(236,-24,cs)
);
}
);
userData = {
RMXScaler = {
height = 125;
verticalShift = -85;
width = 125;
};
};
width = 1200;
},
{
layerId = "94F54C43-8AEE-4ED6-B3C2-2A9D33534E61";
metricWidth = "=baseSymbol.medium";
shapes = (
{
closed = 1;
nodes = (
(240,-74,o),
(284,-75,o),
(312,-47,cs),
(600,240,l),
(888,-47,ls),
(915,-74,o),
(960,-76,o),
(988,-47,cs),
(1017,-17,o),
(1012,27,o),
(987,52,cs),
(700,340,l),
(987,628,ls),
(1013,654,o),
(1016,698,o),
(988,727,cs),
(959,757,o),
(913,752,o),
(888,727,cs),
(600,440,l),
(312,727,ls),
(284,755,o),
(240,754,o),
(213,727,cs),
(186,700,o),
(185,656,o),
(213,628,cs),
(500,340,l),
(213,52,ls),
(185,24,o),
(186,-20,o),
(213,-47,cs)
);
}
);
userData = {
RMXScaler = {
height = 125;
verticalShift = -85;
width = 125;
};
};
width = 1200;
}
);
note = "# Required RMX Scaler

$SYMBOL_MEDIUM";
unicode = 1048964;
userData = {
RMXScaler = {
source = iconClose.small;
};
};
}
{
category = "SF-Symbol";
color = 3;
glyphname = iconCheck.medium;
layers = (
{
layerId = m01;
metricWidth = "=baseSymbol.medium";
shapes = (
{
closed = 1;
nodes = (
(515,64,o),
(524,67,o),
(533,76,cs),
(984,551,ls),
(1001,569,o),
(996,592,o),
(983,605,cs),
(968,620,o),
(944,621,o),
(928,604,cs),
(504,159,l),
(270,390,ls),
(253,407,o),
(230,404,o),
(217,391,cs),
(199,374,o),
(204,350,o),
(217,337,cs),
(478,76,ls),
(486,68,o),
(497,64,o),
(505,64,cs)
);
}
);
userData = {
RMXScaler = {
height = 125;
verticalShift = -85;
width = 125;
};
};
width = 1200;
},
{
layerId = "94F54C43-8AEE-4ED6-B3C2-2A9D33534E61";
metricWidth = "=baseSymbol.medium";
shapes = (
{
closed = 1;
nodes = (
(522,32,o),
(542,39,o),
(556,54,cs),
(1007,529,ls),
(1036,559,o),
(1030,604,o),
(1005,628,cs),
(974,658,o),
(930,652,o),
(905,626,cs),
(504,204,l),
(293,413,ls),
(266,440,o),
(222,441,o),
(194,414,cs),
(163,384,o),
(170,338,o),
(194,314,cs),
(455,53,ls),
(469,39,o),
(488,32,o),
(506,32,cs)
);
}
);
userData = {
RMXScaler = {
height = 125;
verticalShift = -85;
width = 125;
};
};
width = 1200;
}
);
note = "# Required RMX Scaler

$SYMBOL_MEDIUM";
subCategory = Other;
unicode = 1048965;
userData = {
RMXScaler = {
source = iconCheck.small;
};
};
}
{
category = "SF-Symbol";
color = 3;
glyphname = iconTriangleExclamation.medium;
layers = (
{
layerId = m01;
metricWidth = "=baseSymbol.medium";
shapes = (
{
closed = 1;
nodes = (
(925,-99,ls),
(999,-99,o),
(1042,-78,o),
(1070,-30,cs),
(1098,18,o),
(1096,67,o),
(1058,132,cs),
(733,687,ls),
(695,752,o),
(654,779,o),
(600,779,cs),
(540,779,o),
(501,747,o),
(466,687,cs),
(142,132,ls),
(106,70,o),
(100,20,o),
(130,-31,cs),
(160,-82,o),
(206,-99,o),
(275,-99,cs)
);
},
{
closed = 1;
nodes = (
(634,61,o),
(660,89,o),
(660,121,cs),
(660,155,o),
(633,181,o),
(600,181,cs),
(566,181,o),
(540,154,o),
(540,121,cs),
(540,89,o),
(566,61,o),
(600,61,cs)
);
},
{
closed = 1;
nodes = (
(222,-21,o),
(207,-12,o),
(195,10,cs),
(184,30,o),
(182,48,o),
(208,93,cs),
(533,648,ls),
(560,694,o),
(576,701,o),
(600,701,cs),
(623,701,o),
(640,694,o),
(667,648,cs),
(992,93,ls),
(1016,52,o),
(1017,32,o),
(1004,9,cs),
(992,-12,o),
(977,-21,o),
(925,-21,cs),
(275,-21,ls)
);
},
{
closed = 1;
nodes = (
(643,238,l),
(643,523,l),
(557,523,l),
(557,238,l)
);
}
);
userData = {
RMXScaler = {
height = 125;
verticalShift = -85;
width = 125;
};
};
width = 1200;
},
{
layerId = "94F54C43-8AEE-4ED6-B3C2-2A9D33534E61";
metricWidth = "=baseSymbol.medium";
shapes = (
{
closed = 1;
nodes = (
(925,-131,ls),
(1018,-131,o),
(1068,-99,o),
(1099,-44,cs),
(1130,11,o),
(1131,71,o),
(1086,148,cs),
(761,703,ls),
(713,785,o),
(659,811,o),
(600,811,cs),
(542,811,o),
(487,787,o),
(438,703,cs),
(114,148,ls),
(66,66,o),
(72,6,o),
(101,-45,cs),
(131,-98,o),
(180,-131,o),
(275,-131,cs)
);
},
{
closed = 1;
nodes = (
(634,81,o),
(660,109,o),
(660,141,cs),
(660,175,o),
(633,201,o),
(600,201,cs),
(566,201,o),
(540,174,o),
(540,141,cs),
(540,109,o),
(566,81,o),
(600,81,cs)
);
},
{
closed = 1;
nodes = (
(244,11,o),
(229,14,o),
(223,26,cs),
(217,38,o),
(222,53,o),
(236,77,cs),
(561,632,ls),
(578,661,o),
(587,669,o),
(600,669,cs),
(612,669,o),
(621,661,o),
(638,632,cs),
(964,77,ls),
(981,48,o),
(982,37,o),
(976,26,cs),
(970,15,o),
(958,11,o),
(925,11,cs),
(275,11,ls)
);
},
{
closed = 1;
nodes = (
(653,248,l),
(653,483,l),
(547,483,l),
(547,248,l)
);
}
);
userData = {
RMXScaler = {
height = 125;
verticalShift = -85;
width = 125;
};
};
width = 1200;
}
);
note = "# Required RMX Scaler

$SYMBOL_MEDIUM
$SYMBOL_OUTLINE";
subCategory = Other;
unicode = 1049086;
userData = {
RMXScaler = {
source = iconTriangleExclamation.small;
};
};
}
{
category = "SF-Symbol";
color = 3;
glyphname = iconTriangleExclamationFill.medium;
layers = (
{
layerId = m01;
metricWidth = "=baseSymbol.medium";
shapes = (
{
closed = 1;
nodes = (
(925,-99,ls),
(999,-99,o),
(1042,-78,o),
(1070,-30,cs),
(1098,18,o),
(1096,67,o),
(1058,132,cs),
(733,687,ls),
(695,752,o),
(654,779,o),
(600,779,cs),
(540,779,o),
(501,747,o),
(466,687,cs),
(142,132,ls),
(106,70,o),
(100,20,o),
(130,-31,cs),
(160,-82,o),
(206,-99,o),
(275,-99,cs)
);
},
{
closed = 1;
nodes = (
(566,69,o),
(540,97,o),
(540,129,cs),
(540,162,o),
(566,189,o),
(600,189,cs),
(633,189,o),
(660,163,o),
(660,129,cs),
(660,97,o),
(634,69,o),
(600,69,cs)
);
},
{
closed = 1;
nodes = (
(557,511,l),
(643,511,l),
(643,244,l),
(557,244,l)
);
}
);
userData = {
RMXScaler = {
height = 125;
verticalShift = -85;
width = 125;
};
};
width = 1200;
},
{
layerId = "94F54C43-8AEE-4ED6-B3C2-2A9D33534E61";
metricWidth = "=baseSymbol.medium";
shapes = (
{
closed = 1;
nodes = (
(925,-131,ls),
(1018,-131,o),
(1068,-99,o),
(1099,-44,cs),
(1130,11,o),
(1131,71,o),
(1086,148,cs),
(761,703,ls),
(713,785,o),
(659,811,o),
(600,811,cs),
(542,811,o),
(487,787,o),
(438,703,cs),
(114,148,ls),
(66,66,o),
(72,6,o),
(101,-45,cs),
(131,-98,o),
(180,-131,o),
(275,-131,cs)
);
},
{
closed = 1;
nodes = (
(566,49,o),
(540,77,o),
(540,109,cs),
(540,142,o),
(566,169,o),
(600,169,cs),
(633,169,o),
(660,143,o),
(660,109,cs),
(660,77,o),
(634,49,o),
(600,49,cs)
);
},
{
closed = 1;
nodes = (
(547,531,l),
(653,531,l),
(653,224,l),
(547,224,l)
);
}
);
userData = {
RMXScaler = {
height = 125;
verticalShift = -85;
width = 125;
};
};
width = 1200;
}
);
note = "# Required RMX Scaler

$SYMBOL_ICON
$SYMBOL_MEDIUM
$SYMBOL_FILL";
subCategory = Other;
unicode = 1049087;
userData = {
RMXScaler = {
source = iconTriangleExclamationFill.small;
};
};
}
{
category = "SF-Symbol";
color = 3;
glyphname = iconHeart.medium;
layers = (
{
layerId = m01;
shapes = (
{
closed = 1;
nodes = (
(620,-114,o),
(639,-106,o),
(653,-92,cs),
(1006,266,ls),
(1063,324,o),
(1088,398,o),
(1088,470,cs),
(1088,628,o),
(967,761,o),
(807,761,cs),
(732,761,o),
(655,730,o),
(600,667,c),
(544,731,o),
(466,761,o),
(392,761,cs),
(232,761,o),
(111,628,o),
(111,470,cs),
(111,398,o),
(136,324,o),
(193,266,cs),
(547,-92,ls),
(562,-107,o),
(580,-114,o),
(600,-114,cs)
);
},
{
closed = 1;
nodes = (
(249,319,ls),
(209,359,o),
(188,415,o),
(188,471,cs),
(188,585,o),
(275,684,o),
(392,684,cs),
(455,684,o),
(515,654,o),
(554,599,cs),
(566,582,o),
(576,564,o),
(600,564,cs),
(623,564,o),
(626,575,o),
(645,601,cs),
(687,659,o),
(749,684,o),
(807,684,cs),
(922,684,o),
(1011,586,o),
(1011,471,cs),
(1011,420,o),
(993,362,o),
(950,319,cs),
(600,-35,l)
);
}
);
userData = {
RMXScaler = {
height = 125;
verticalShift = -85;
width = 125;
};
};
width = 1199;
},
{
layerId = "94F54C43-8AEE-4ED6-B3C2-2A9D33534E61";
metricWidth = "=baseSymbol.medium";
shapes = (
{
closed = 1;
nodes = (
(629,-146,o),
(656,-134,o),
(676,-114,cs),
(1029,244,ls),
(1093,309,o),
(1120,392,o),
(1120,471,cs),
(1120,650,o),
(979,793,o),
(808,793,cs),
(730,793,o),
(656,763,o),
(600,711,c),
(543,764,o),
(468,793,o),
(391,793,cs),
(219,793,o),
(79,649,o),
(79,471,cs),
(79,390,o),
(107,308,o),
(170,244,cs),
(524,-114,ls),
(545,-135,o),
(572,-146,o),
(600,-146,cs)
);
},
{
closed = 1;
nodes = (
(271,341,ls),
(236,376,o),
(220,423,o),
(220,470,cs),
(220,570,o),
(297,653,o),
(392,653,cs),
(445,653,o),
(496,627,o),
(529,580,cs),
(553,546,o),
(566,532,o),
(600,532,cs),
(634,532,o),
(645,546,o),
(671,582,cs),
(707,632,o),
(760,653,o),
(807,653,cs),
(902,653,o),
(979,570,o),
(979,470,cs),
(979,423,o),
(963,376,o),
(928,341,cs),
(600,11,l)
);
}
);
userData = {
RMXScaler = {
height = 125;
verticalShift = -85;
width = 125;
};
};
width = 1200;
}
);
note = "# Required RMX Scaler

$SYMBOL_MEDIUM
$SYMBOL_OUTLINE";
subCategory = Other;
unicode = 1049268;
userData = {
RMXScaler = {
source = iconHeart.small;
};
};
}
{
category = "SF-Symbol";
color = 3;
glyphname = iconHeartFill.medium;
layers = (
{
layerId = m01;
metricWidth = "=baseSymbol.medium";
shapes = (
{
closed = 1;
nodes = (
(620,-114,o),
(639,-106,o),
(653,-92,cs),
(1006,266,ls),
(1063,324,o),
(1088,398,o),
(1088,470,cs),
(1088,628,o),
(967,761,o),
(807,761,cs),
(732,761,o),
(655,730,o),
(600,667,c),
(544,731,o),
(466,761,o),
(392,761,cs),
(232,761,o),
(111,628,o),
(111,470,cs),
(111,398,o),
(136,324,o),
(193,266,cs),
(547,-92,ls),
(562,-107,o),
(580,-114,o),
(600,-114,cs)
);
}
);
userData = {
RMXScaler = {
height = 125;
verticalShift = -85;
width = 125;
};
};
width = 1200;
},
{
layerId = "94F54C43-8AEE-4ED6-B3C2-2A9D33534E61";
metricWidth = "=baseSymbol.medium";
shapes = (
{
closed = 1;
nodes = (
(629,-146,o),
(656,-134,o),
(676,-114,cs),
(1029,244,ls),
(1093,309,o),
(1120,392,o),
(1120,471,cs),
(1120,650,o),
(979,793,o),
(808,793,cs),
(730,793,o),
(656,763,o),
(600,711,c),
(543,764,o),
(468,793,o),
(391,793,cs),
(219,793,o),
(79,649,o),
(79,471,cs),
(79,390,o),
(107,308,o),
(170,244,cs),
(524,-114,ls),
(545,-135,o),
(572,-146,o),
(600,-146,cs)
);
}
);
userData = {
RMXScaler = {
height = 125;
verticalShift = -85;
width = 125;
};
};
width = 1200;
}
);
note = "# Required RMX Scaler

$SYMBOL_MEDIUM
$SYMBOL_FILL";
subCategory = Other;
unicode = 1049269;
userData = {
RMXScaler = {
source = iconHeartFill.small;
};
};
}
{
category = "SF-Symbol";
color = 3;
glyphname = iconStar.medium;
layers = (
{
layerId = m01;
shapes = (
{
closed = 1;
nodes = (
(600,-15,l),
(814,-110,ls),
(922,-158,o),
(949,-117,o),
(939,-19,cs),
(915,214,l),
(1072,388,ls),
(1145,469,o),
(1118,513,o),
(1024,533,cs),
(795,582,l),
(677,785,ls),
(648,835,o),
(632,854,o),
(600,854,cs),
(569,854,o),
(553,835,o),
(524,785,cs),
(406,582,l),
(177,533,ls),
(83,513,o),
(56,469,o),
(129,388,cs),
(286,214,l),
(262,-19,ls),
(252,-117,o),
(279,-158,o),
(387,-110,cs)
);
},
{
closed = 1;
nodes = (
(338,-46,o),
(337,-46,o),
(338,-40,cs),
(363,200,ls),
(366,228,o),
(365,241,o),
(341,268,cs),
(179,448,ls),
(175,452,o),
(179,454,o),
(183,455,cs),
(417,506,ls),
(444,512,o),
(458,518,o),
(475,548,cs),
(596,758,ls),
(597,760,o),
(599,762,o),
(600,762,cs),
(602,762,o),
(604,760,o),
(605,758,cs),
(726,548,ls),
(742,520,o),
(755,512,o),
(784,506,cs),
(1018,455,ls),
(1023,454,o),
(1026,452,o),
(1022,448,cs),
(860,268,ls),
(836,241,o),
(835,229,o),
(838,200,cs),
(863,-40,ls),
(864,-47,o),
(861,-46,o),
(857,-44,cs),
(635,53,ls),
(621,59,o),
(611,62,o),
(600,62,cs),
(590,62,o),
(580,59,o),
(566,53,cs),
(344,-44,ls)
);
}
);
userData = {
RMXScaler = {
height = 125;
verticalShift = -85;
width = 125;
};
};
width = 1201;
},
{
layerId = "94F54C43-8AEE-4ED6-B3C2-2A9D33534E61";
metricWidth = "=baseSymbol.medium";
shapes = (
{
closed = 1;
nodes = (
(600,-51,l),
(801,-139,ls),
(929,-195,o),
(985,-142,o),
(971,-16,cs),
(947,202,l),
(1096,367,ls),
(1189,470,o),
(1144,539,o),
(1030,564,cs),
(816,611,l),
(704,802,ls),
(673,855,o),
(648,886,o),
(600,886,cs),
(553,886,o),
(528,857,o),
(496,802,cs),
(385,611,l),
(171,564,ls),
(57,539,o),
(12,470,o),
(105,367,cs),
(254,202,l),
(230,-16,ls),
(216,-143,o),
(273,-195,o),
(400,-139,cs)
);
},
{
closed = 1;
nodes = (
(378,6,o),
(375,5,o),
(376,14,cs),
(395,196,ls),
(399,234,o),
(393,258,o),
(365,289,cs),
(242,425,ls),
(235,432,o),
(240,435,o),
(245,436,cs),
(424,474,ls),
(462,482,o),
(482,496,o),
(503,532,cs),
(592,687,ls),
(596,694,o),
(598,697,o),
(600,697,cs),
(602,697,o),
(605,694,o),
(609,687,cs),
(698,532,ls),
(718,497,o),
(738,482,o),
(777,474,cs),
(956,436,ls),
(961,435,o),
(966,432,o),
(959,425,cs),
(836,289,ls),
(808,258,o),
(802,235,o),
(806,196,cs),
(825,14,ls),
(826,8,o),
(825,5,o),
(818,8,cs),
(648,82,ls),
(630,90,o),
(614,94,o),
(600,94,cs),
(586,94,o),
(571,90,o),
(553,82,cs),
(383,8,ls)
);
}
);
userData = {
RMXScaler = {
height = 125;
verticalShift = -85;
width = 125;
};
};
width = 1200;
}
);
note = "# Required RMX Scaler

$SYMBOL_MEDIUM
$SYMBOL_OUTLINE";
subCategory = Other;
unicode = 1049282;
userData = {
RMXScaler = {
source = iconStar.small;
};
};
}
{
category = "SF-Symbol";
color = 3;
glyphname = iconStarFill.medium;
layers = (
{
layerId = m01;
metricWidth = "=baseSymbol.medium";
shapes = (
{
closed = 1;
nodes = (
(600,-16,l),
(814,-110,ls),
(923,-158,o),
(949,-116,o),
(939,-19,cs),
(915,214,l),
(1072,388,ls),
(1145,469,o),
(1118,513,o),
(1024,533,cs),
(795,582,l),
(677,785,ls),
(648,835,o),
(632,854,o),
(600,854,cs),
(569,854,o),
(553,835,o),
(524,785,cs),
(406,582,l),
(177,533,ls),
(83,513,o),
(56,469,o),
(129,388,cs),
(286,214,l),
(262,-19,ls),
(252,-116,o),
(278,-158,o),
(387,-110,cs)
);
}
);
userData = {
RMXScaler = {
height = 125;
verticalShift = -85;
width = 125;
};
};
width = 1200;
},
{
layerId = "94F54C43-8AEE-4ED6-B3C2-2A9D33534E61";
metricWidth = "=baseSymbol.medium";
shapes = (
{
closed = 1;
nodes = (
(600,-51,l),
(801,-139,ls),
(929,-195,o),
(985,-142,o),
(971,-16,cs),
(947,202,l),
(1096,367,ls),
(1189,470,o),
(1144,539,o),
(1030,564,cs),
(816,611,l),
(704,802,ls),
(673,855,o),
(648,886,o),
(600,886,cs),
(553,886,o),
(528,857,o),
(496,802,cs),
(385,611,l),
(171,564,ls),
(57,539,o),
(12,470,o),
(105,367,cs),
(254,202,l),
(230,-16,ls),
(216,-143,o),
(273,-195,o),
(400,-139,cs)
);
}
);
userData = {
RMXScaler = {
height = 125;
verticalShift = -85;
width = 125;
};
};
width = 1200;
}
);
note = "# Required RMX Scaler

$SYMBOL_ICON
$SYMBOL_MEDIUM
$SYMBOL_FILL";
subCategory = Other;
unicode = 1049283;
userData = {
RMXScaler = {
source = iconStarFill.small;
};
};
}
{
color = 3;
glyphname = iconArrowUpDown.medium;
layers = (
{
layerId = m01;
metricWidth = "=baseSymbol.medium";
shapes = (
{
closed = 1;
nodes = (
(589,-128,o),
(611,-127,o),
(626,-112,cs),
(876,138,ls),
(891,153,o),
(893,176,o),
(876,192,cs),
(860,208,o),
(837,206,o),
(823,192,cs),
(638,8,l),
(638,672,l),
(823,488,ls),
(838,473,o),
(860,473,o),
(876,488,cs),
(891,503,o),
(893,525,o),
(876,542,cs),
(626,792,ls),
(611,807,o),
(589,808,o),
(573,792,cs),
(323,542,ls),
(305,524,o),
(310,501,o),
(323,488,cs),
(338,473,o),
(361,473,o),
(376,488,cs),
(561,672,l),
(561,8,l),
(376,192,ls),
(359,209,o),
(336,205,o),
(323,192,cs),
(308,177,o),
(306,155,o),
(323,138,cs),
(573,-112,ls)
);
}
);
userData = {
RMXScaler = {
height = 125;
verticalShift = -85;
width = 125;
};
};
width = 1200;
},
{
layerId = "94F54C43-8AEE-4ED6-B3C2-2A9D33534E61";
metricWidth = "=baseSymbol.medium";
shapes = (
{
closed = 1;
nodes = (
(578,-163,o),
(622,-162,o),
(649,-135,cs),
(899,115,ls),
(926,142,o),
(928,187,o),
(899,215,cs),
(871,243,o),
(826,241,o),
(800,215,cs),
(670,85,l),
(670,595,l),
(800,465,ls),
(827,438,o),
(871,437,o),
(899,465,cs),
(926,492,o),
(928,536,o),
(899,565,cs),
(649,815,ls),
(622,842,o),
(578,843,o),
(550,815,cs),
(300,565,ls),
(273,538,o),
(271,493,o),
(300,465,cs),
(328,437,o),
(373,439,o),
(399,465,cs),
(529,595,l),
(529,85,l),
(399,215,ls),
(373,241,o),
(329,243,o),
(300,215,cs),
(273,188,o),
(271,144,o),
(300,115,cs),
(550,-135,ls)
);
}
);
userData = {
RMXScaler = {
height = 125;
verticalShift = -85;
width = 125;
};
};
width = 1200;
}
);
note = "# Required RMX Scaler

$SYMBOL_MEDIUM";
unicode = 1049721;
userData = {
RMXScaler = {
source = iconArrowUpDown.small;
};
};
}
{
category = "SF-Symbol";
export = 0;
glyphname = baseSymbol;
layers = (
{
layerId = m01;
shapes = (
{
closed = 1;
nodes = (
(960,-140,l),
(960,820,l),
(0,818,l),
(0,-140,l)
);
}
);
width = 960;
},
{
layerId = "94F54C43-8AEE-4ED6-B3C2-2A9D33534E61";
shapes = (
{
closed = 1;
nodes = (
(960,-140,l),
(960,820,l),
(0,818,l),
(0,-140,l)
);
}
);
width = 960;
}
);
subCategory = Other;
}
{
color = 3;
glyphname = iconArrowBottomLeft.large;
layers = (
{
layerId = m01;
metricWidth = "=baseSymbol.large";
shapes = (
{
closed = 1;
nodes = (
(930,-31,ls),
(953,-31,o),
(971,-13,o),
(971,10,cs),
(971,33,o),
(953,51,o),
(930,51,cs),
(490,51,l),
(1079,642,ls),
(1095,658,o),
(1096,681,o),
(1079,698,cs),
(1063,714,o),
(1040,716,o),
(1022,698,cs),
(431,110,l),
(431,550,ls),
(431,573,o),
(412,591,o),
(390,591,cs),
(368,591,o),
(349,573,o),
(349,550,cs),
(349,10,ls),
(349,-13,o),
(367,-31,o),
(390,-31,cs)
);
}
);
userData = {
RMXScaler = {
height = 150;
verticalShift = -170;
width = 150;
};
};
width = 1440;
},
{
layerId = "94F54C43-8AEE-4ED6-B3C2-2A9D33534E61";
metricWidth = "=baseSymbol.large";
shapes = (
{
closed = 1;
nodes = (
(930,-63,ls),
(971,-63,o),
(1003,-31,o),
(1003,10,cs),
(1003,51,o),
(971,83,o),
(930,83,cs),
(567,83,l),
(1102,619,ls),
(1130,647,o),
(1131,692,o),
(1102,721,cs),
(1074,749,o),
(1029,751,o),
(999,721,cs),
(463,187,l),
(463,550,ls),
(463,591,o),
(430,623,o),
(390,623,cs),
(350,623,o),
(317,591,o),
(317,550,cs),
(317,10,ls),
(317,-31,o),
(349,-63,o),
(390,-63,cs)
);
}
);
userData = {
RMXScaler = {
height = 150;
verticalShift = -170;
width = 150;
};
};
width = 1440;
}
);
note = "# Required RMX Scaler

$SYMBOL_LARGE";
userData = {
RMXScaler = {
source = iconArrowBottomLeft.small;
};
};
}
{
category = "SF-Symbol";
glyphname = iconArrowBottomLeft.small;
layers = (
{
layerId = m01;
shapes = (
{
closed = 1;
nodes = (
(620,84,ls),
(640,84,o),
(656,100,o),
(656,120,cs),
(656,140,o),
(640,156,o),
(620,156,cs),
(347,156,l),
(725,535,ls),
(740,549,o),
(740,571,o),
(725,585,cs),
(711,600,o),
(689,600,o),
(675,585,cs),
(296,207,l),
(296,480,ls),
(296,500,o),
(280,516,o),
(260,516,cs),
(240,516,o),
(224,500,o),
(224,480,cs),
(224,120,ls),
(224,100,o),
(240,84,o),
(260,84,cs)
);
}
);
width = 960;
},
{
layerId = "94F54C43-8AEE-4ED6-B3C2-2A9D33534E61";
shapes = (
{
closed = 1;
nodes = (
(620,52,ls),
(658,52,o),
(688,82,o),
(688,120,cs),
(688,158,o),
(658,188,o),
(620,188,cs),
(424,188,l),
(748,512,ls),
(775,538,o),
(775,582,o),
(748,608,cs),
(722,635,o),
(678,635,o),
(652,608,cs),
(328,284,l),
(328,480,ls),
(328,518,o),
(298,548,o),
(260,548,cs),
(222,548,o),
(192,518,o),
(192,480,cs),
(192,120,ls),
(192,82,o),
(222,52,o),
(260,52,cs)
);
}
);
width = 960;
}
);
metricWidth = baseSymbol;
note = "$SYMBOL_ICON
$SYMBOL_SMALL";
subCategory = Other;
}
{
category = "SF-Symbol";
color = 3;
glyphname = iconArrowBottomRight.large;
layers = (
{
layerId = m01;
metricWidth = "=baseSymbol.large";
shapes = (
{
closed = 1;
nodes = (
(1050,-31,ls),
(1073,-31,o),
(1092,-13,o),
(1092,10,cs),
(1092,550,ls),
(1092,573,o),
(1073,591,o),
(1050,591,cs),
(1028,591,o),
(1009,573,o),
(1009,550,cs),
(1009,110,l),
(419,698,ls),
(403,714,o),
(379,716,o),
(362,699,cs),
(346,683,o),
(344,660,o),
(362,642,cs),
(951,51,l),
(510,51,ls),
(488,51,o),
(469,33,o),
(469,10,cs),
(469,-13,o),
(488,-31,o),
(510,-31,cs)
);
}
);
userData = {
RMXScaler = {
height = 150;
verticalShift = -170;
width = 150;
};
};
width = 1440;
},
{
layerId = "94F54C43-8AEE-4ED6-B3C2-2A9D33534E61";
metricWidth = "=baseSymbol.large";
shapes = (
{
closed = 1;
nodes = (
(1050,-63,ls),
(1091,-63,o),
(1124,-31,o),
(1124,10,cs),
(1124,550,ls),
(1124,591,o),
(1091,623,o),
(1050,623,cs),
(1010,623,o),
(977,591,o),
(977,550,cs),
(977,187,l),
(442,721,ls),
(410,753,o),
(364,747,o),
(339,722,cs),
(312,695,o),
(308,650,o),
(339,619,cs),
(874,83,l),
(510,83,ls),
(470,83,o),
(437,51,o),
(437,10,cs),
(437,-31,o),
(470,-63,o),
(510,-63,cs)
);
}
);
userData = {
RMXScaler = {
height = 150;
verticalShift = -170;
width = 150;
};
};
width = 1440;
}
);
note = "# Required RMX Scaler

$SYMBOL_ICON
$SYMBOL_LARGE";
subCategory = Other;
userData = {
RMXScaler = {
source = iconArrowBottomRight.small;
};
};
}
{
category = "SF-Symbol";
glyphname = iconArrowBottomRight.small;
layers = (
{
layerId = m01;
shapes = (
{
closed = 1;
nodes = (
(700,84,ls),
(720,84,o),
(736,100,o),
(736,120,cs),
(736,480,ls),
(736,500,o),
(720,516,o),
(700,516,cs),
(680,516,o),
(664,500,o),
(664,480,cs),
(664,207,l),
(285,585,ls),
(271,600,o),
(249,600,o),
(235,585,cs),
(220,571,o),
(220,549,o),
(235,535,cs),
(613,156,l),
(340,156,ls),
(320,156,o),
(304,140,o),
(304,120,cs),
(304,100,o),
(320,84,o),
(340,84,cs)
);
}
);
width = 960;
},
{
layerId = "94F54C43-8AEE-4ED6-B3C2-2A9D33534E61";
shapes = (
{
closed = 1;
nodes = (
(700,52,ls),
(738,52,o),
(768,82,o),
(768,120,cs),
(768,480,ls),
(768,518,o),
(738,548,o),
(700,548,cs),
(662,548,o),
(632,518,o),
(632,480,cs),
(632,284,l),
(308,608,ls),
(282,635,o),
(238,635,o),
(212,608,cs),
(185,582,o),
(185,538,o),
(212,512,cs),
(536,188,l),
(340,188,ls),
(302,188,o),
(272,158,o),
(272,120,cs),
(272,82,o),
(302,52,o),
(340,52,cs)
);
}
);
width = 960;
}
);
metricWidth = baseSymbol;
note = $SYMBOL_SMALL;
subCategory = Other;
}
{
category = "SF-Symbol";
color = 3;
glyphname = iconArrowDown.large;
layers = (
{
layerId = m01;
metricWidth = "=baseSymbol.large";
shapes = (
{
closed = 1;
nodes = (
(710,-186,o),
(733,-184,o),
(749,-168,cs),
(1139,222,ls),
(1155,238,o),
(1156,261,o),
(1139,278,cs),
(1123,294,o),
(1100,296,o),
(1082,278,cs),
(762,-40,l),
(762,820,ls),
(762,843,o),
(743,861,o),
(720,861,cs),
(698,861,o),
(679,843,o),
(679,820,cs),
(679,-40,l),
(359,278,ls),
(343,294,o),
(319,296,o),
(302,279,cs),
(286,263,o),
(284,240,o),
(302,222,cs),
(692,-168,ls)
);
}
);
userData = {
RMXScaler = {
height = 150;
verticalShift = -170;
width = 150;
};
};
width = 1440;
},
{
layerId = "94F54C43-8AEE-4ED6-B3C2-2A9D33534E61";
metricWidth = "=baseSymbol.large";
shapes = (
{
closed = 1;
nodes = (
(698,-220,o),
(743,-220,o),
(772,-191,cs),
(1162,199,ls),
(1190,227,o),
(1191,272,o),
(1162,301,cs),
(1134,329,o),
(1089,331,o),
(1059,301,cs),
(794,37,l),
(794,820,ls),
(794,861,o),
(761,893,o),
(720,893,cs),
(680,893,o),
(647,861,o),
(647,820,cs),
(647,37,l),
(382,301,ls),
(351,332,o),
(305,328,o),
(279,302,cs),
(252,275,o),
(248,230,o),
(279,199,cs),
(669,-191,ls)
);
}
);
userData = {
RMXScaler = {
height = 150;
verticalShift = -170;
width = 150;
};
};
width = 1440;
}
);
note = "# Required RMX Scaler

$SYMBOL_LARGE";
subCategory = Other;
userData = {
RMXScaler = {
source = iconArrowDown.small;
};
};
}
{
category = "SF-Symbol";
glyphname = iconArrowDown.small;
layers = (
{
layerId = m01;
shapes = (
{
closed = 1;
nodes = (
(469,-20,o),
(491,-20,o),
(505,-5,cs),
(765,255,ls),
(780,269,o),
(780,291,o),
(765,305,cs),
(751,320,o),
(729,320,o),
(715,305,cs),
(516,107,l),
(516,660,ls),
(516,680,o),
(500,696,o),
(480,696,cs),
(460,696,o),
(444,680,o),
(444,660,cs),
(444,107,l),
(245,305,ls),
(231,320,o),
(209,320,o),
(195,305,cs),
(180,291,o),
(180,269,o),
(195,255,cs),
(455,-5,ls)
);
}
);
width = 960;
},
{
layerId = "94F54C43-8AEE-4ED6-B3C2-2A9D33534E61";
shapes = (
{
closed = 1;
nodes = (
(458,-55,o),
(502,-55,o),
(528,-28,cs),
(788,232,ls),
(815,258,o),
(815,302,o),
(788,328,cs),
(762,355,o),
(718,355,o),
(692,328,cs),
(548,184,l),
(548,660,ls),
(548,698,o),
(518,728,o),
(480,728,cs),
(442,728,o),
(412,698,o),
(412,660,cs),
(412,184,l),
(268,328,ls),
(242,355,o),
(198,355,o),
(172,328,cs),
(145,302,o),
(145,258,o),
(172,232,cs),
(432,-28,ls)
);
}
);
width = 960;
}
);
metricWidth = baseSymbol;
note = "$SYMBOL_ICON
$SYMBOL_SMALL";
subCategory = Other;
}
{
category = "SF-Symbol";
color = 3;
glyphname = iconArrowLeft.large;
layers = (
{
layerId = m01;
metricWidth = "=baseSymbol.large";
shapes = (
{
closed = 1;
nodes = (
(619,-95,o),
(642,-95,o),
(659,-78,cs),
(677,-60,o),
(673,-36,o),
(659,-22,cs),
(340,299,l),
(1200,299,ls),
(1223,299,o),
(1242,317,o),
(1242,340,cs),
(1242,363,o),
(1223,381,o),
(1200,381,cs),
(340,381,l),
(659,702,ls),
(675,718,o),
(676,741,o),
(659,758,cs),
(643,774,o),
(620,776,o),
(602,758,cs),
(212,368,ls),
(195,351,o),
(195,329,o),
(212,312,cs),
(602,-78,ls)
);
}
);
userData = {
RMXScaler = {
height = 150;
verticalShift = -170;
width = 150;
};
};
width = 1440;
},
{
layerId = "94F54C43-8AEE-4ED6-B3C2-2A9D33534E61";
metricWidth = "=baseSymbol.large";
shapes = (
{
closed = 1;
nodes = (
(608,-130,o),
(653,-130,o),
(682,-101,cs),
(713,-70,o),
(707,-24,o),
(682,1,cs),
(417,267,l),
(1200,267,ls),
(1241,267,o),
(1274,299,o),
(1274,340,cs),
(1274,381,o),
(1241,413,o),
(1200,413,cs),
(417,413,l),
(682,679,ls),
(710,707,o),
(711,752,o),
(682,781,cs),
(654,809,o),
(609,811,o),
(579,781,cs),
(189,391,ls),
(161,363,o),
(159,319,o),
(189,289,cs),
(579,-101,ls)
);
}
);
userData = {
RMXScaler = {
height = 150;
verticalShift = -170;
width = 150;
};
};
width = 1440;
}
);
note = "# Required RMX Scaler

$SYMBOL_LARGE";
subCategory = Other;
userData = {
RMXScaler = {
source = iconArrowLeft.small;
};
};
}
{
glyphname = iconArrowLeft.small;
layers = (
{
layerId = m01;
shapes = (
{
closed = 1;
nodes = (
(409,40,o),
(431,40,o),
(445,55,cs),
(460,69,o),
(460,91,o),
(445,105,cs),
(247,304,l),
(800,304,ls),
(820,304,o),
(836,320,o),
(836,340,cs),
(836,360,o),
(820,376,o),
(800,376,cs),
(247,376,l),
(445,575,ls),
(460,589,o),
(460,611,o),
(445,625,cs),
(431,640,o),
(409,640,o),
(395,625,cs),
(135,365,ls),
(120,351,o),
(120,329,o),
(135,315,cs),
(395,55,ls)
);
}
);
width = 960;
},
{
layerId = "94F54C43-8AEE-4ED6-B3C2-2A9D33534E61";
shapes = (
{
closed = 1;
nodes = (
(398,5,o),
(442,5,o),
(468,32,cs),
(495,58,o),
(495,102,o),
(468,128,cs),
(324,272,l),
(800,272,ls),
(838,272,o),
(868,302,o),
(868,340,cs),
(868,378,o),
(838,408,o),
(800,408,cs),
(324,408,l),
(468,552,ls),
(495,578,o),
(495,622,o),
(468,648,cs),
(442,675,o),
(398,675,o),
(372,648,cs),
(112,388,ls),
(85,362,o),
(85,318,o),
(112,292,cs),
(372,32,ls)
);
}
);
width = 960;
}
);
metricWidth = baseSymbol;
note = $SYMBOL_SMALL;
}
{
category = "SF-Symbol";
color = 3;
glyphname = iconArrowLeftRight.large;
layers = (
{
layerId = m01;
metricWidth = "=baseSymbol.large";
shapes = (
{
closed = 1;
nodes = (
(499,-5,o),
(522,-5,o),
(539,12,cs),
(557,30,o),
(553,54,o),
(539,68,cs),
(310,299,l),
(1131,299,l),
(902,68,ls),
(885,51,o),
(886,27,o),
(902,11,cs),
(919,-6,o),
(943,-4,o),
(959,12,cs),
(1259,312,ls),
(1276,329,o),
(1275,352,o),
(1259,368,cs),
(959,668,ls),
(943,684,o),
(920,686,o),
(902,669,cs),
(883,650,o),
(888,626,o),
(902,612,cs),
(1131,381,l),
(310,381,l),
(539,612,ls),
(555,628,o),
(555,651,o),
(539,668,cs),
(523,684,o),
(500,686,o),
(482,668,cs),
(182,368,ls),
(165,351,o),
(165,329,o),
(182,312,cs),
(482,12,ls)
);
}
);
userData = {
RMXScaler = {
height = 150;
verticalShift = -170;
width = 150;
};
};
width = 1440;
},
{
layerId = "94F54C43-8AEE-4ED6-B3C2-2A9D33534E61";
metricWidth = "=baseSymbol.large";
shapes = (
{
closed = 1;
nodes = (
(488,-40,o),
(533,-40,o),
(562,-11,cs),
(593,20,o),
(587,66,o),
(562,91,cs),
(387,267,l),
(1054,267,l),
(879,91,ls),
(850,62,o),
(851,16,o),
(879,-12,cs),
(908,-41,o),
(954,-39,o),
(982,-11,cs),
(1282,289,ls),
(1311,318,o),
(1310,363,o),
(1282,391,cs),
(982,691,ls),
(954,719,o),
(909,721,o),
(879,692,cs),
(847,661,o),
(854,614,o),
(879,589,cs),
(1054,413,l),
(387,413,l),
(562,589,ls),
(589,616,o),
(591,661,o),
(562,691,cs),
(534,719,o),
(489,721,o),
(459,691,cs),
(159,391,ls),
(131,363,o),
(129,319,o),
(159,289,cs),
(459,-11,ls)
);
}
);
userData = {
RMXScaler = {
height = 150;
verticalShift = -170;
width = 150;
};
};
width = 1440;
}
);
note = "# Required RMX Scaler

$SYMBOL_ICON
$SYMBOL_LARGE";
subCategory = Other;
userData = {
RMXScaler = {
source = iconArrowLeftRight.small;
};
};
}
{
category = "SF-Symbol";
glyphname = iconArrowLeftRight.small;
layers = (
{
layerId = m01;
shapes = (
{
closed = 1;
nodes = (
(329,100,o),
(351,100,o),
(365,115,cs),
(380,129,o),
(380,151,o),
(365,165,cs),
(227,304,l),
(733,304,l),
(595,165,ls),
(580,151,o),
(580,129,o),
(595,115,cs),
(609,100,o),
(631,100,o),
(645,115,cs),
(845,315,ls),
(860,329,o),
(860,351,o),
(845,365,cs),
(645,565,ls),
(631,580,o),
(609,580,o),
(595,565,cs),
(580,551,o),
(580,529,o),
(595,515,cs),
(733,376,l),
(227,376,l),
(365,515,ls),
(380,529,o),
(380,551,o),
(365,565,cs),
(351,580,o),
(329,580,o),
(315,565,cs),
(115,365,ls),
(100,351,o),
(100,329,o),
(115,315,cs),
(315,115,ls)
);
}
);
width = 960;
},
{
layerId = "94F54C43-8AEE-4ED6-B3C2-2A9D33534E61";
shapes = (
{
closed = 1;
nodes = (
(318,65,o),
(362,65,o),
(388,92,cs),
(415,118,o),
(415,162,o),
(388,188,cs),
(304,272,l),
(656,272,l),
(572,188,ls),
(545,162,o),
(545,118,o),
(572,92,cs),
(598,65,o),
(642,65,o),
(668,92,cs),
(868,292,ls),
(895,318,o),
(895,362,o),
(868,388,cs),
(668,588,ls),
(642,615,o),
(598,615,o),
(572,588,cs),
(545,562,o),
(545,518,o),
(572,492,cs),
(656,408,l),
(304,408,l),
(388,492,ls),
(415,518,o),
(415,562,o),
(388,588,cs),
(362,615,o),
(318,615,o),
(292,588,cs),
(92,388,ls),
(65,362,o),
(65,318,o),
(92,292,cs),
(292,92,ls)
);
}
);
width = 960;
}
);
metricWidth = baseSymbol;
note = "$SYMBOL_ICON
$SYMBOL_SMALL";
subCategory = Other;
}
{
category = "SF-Symbol";
color = 3;
glyphname = iconArrowRight.large;
layers = (
{
layerId = m01;
metricWidth = "=baseSymbol.large";
shapes = (
{
closed = 1;
nodes = (
(799,-96,o),
(823,-94,o),
(839,-78,cs),
(1229,312,ls),
(1246,329,o),
(1245,352,o),
(1229,368,cs),
(839,758,ls),
(823,774,o),
(800,776,o),
(782,759,cs),
(766,743,o),
(764,720,o),
(782,702,cs),
(1101,381,l),
(240,381,ls),
(218,381,o),
(199,363,o),
(199,340,cs),
(199,317,o),
(218,299,o),
(240,299,cs),
(1101,299,l),
(782,-22,ls),
(764,-40,o),
(767,-64,o),
(782,-79,cs)
);
}
);
userData = {
RMXScaler = {
height = 150;
verticalShift = -170;
width = 150;
};
};
width = 1440;
},
{
layerId = "94F54C43-8AEE-4ED6-B3C2-2A9D33534E61";
metricWidth = "=baseSymbol.large";
shapes = (
{
closed = 1;
nodes = (
(788,-131,o),
(834,-129,o),
(862,-101,cs),
(1252,289,ls),
(1281,318,o),
(1280,363,o),
(1252,391,cs),
(862,781,ls),
(834,809,o),
(789,811,o),
(759,782,cs),
(732,755,o),
(728,710,o),
(759,679,cs),
(1024,413,l),
(240,413,ls),
(199,413,o),
(167,381,o),
(167,340,cs),
(167,299,o),
(199,267,o),
(240,267,cs),
(1024,267,l),
(759,1,ls),
(729,-29,o),
(732,-75,o),
(759,-102,cs)
);
}
);
userData = {
RMXScaler = {
height = 150;
verticalShift = -170;
width = 150;
};
};
width = 1440;
}
);
note = "# Required RMX Scaler

$SYMBOL_ICON
$SYMBOL_LARGE";
subCategory = Other;
userData = {
RMXScaler = {
source = iconArrowRight.small;
};
};
}
{
category = "SF-Symbol";
glyphname = iconArrowRight.small;
layers = (
{
layerId = m01;
shapes = (
{
closed = 1;
nodes = (
(529,40,o),
(551,40,o),
(565,55,cs),
(825,315,ls),
(840,329,o),
(840,351,o),
(825,365,cs),
(565,625,ls),
(551,640,o),
(529,640,o),
(515,625,cs),
(500,611,o),
(500,589,o),
(515,575,cs),
(713,376,l),
(160,376,ls),
(140,376,o),
(124,360,o),
(124,340,cs),
(124,320,o),
(140,304,o),
(160,304,cs),
(713,304,l),
(515,105,ls),
(500,91,o),
(500,69,o),
(515,55,cs)
);
}
);
width = 960;
},
{
layerId = "94F54C43-8AEE-4ED6-B3C2-2A9D33534E61";
shapes = (
{
closed = 1;
nodes = (
(518,5,o),
(562,5,o),
(588,32,cs),
(848,292,ls),
(875,318,o),
(875,362,o),
(848,388,cs),
(588,648,ls),
(562,675,o),
(518,675,o),
(492,648,cs),
(465,622,o),
(465,578,o),
(492,552,cs),
(636,408,l),
(160,408,ls),
(122,408,o),
(92,378,o),
(92,340,cs),
(92,302,o),
(122,272,o),
(160,272,cs),
(636,272,l),
(492,128,ls),
(465,102,o),
(465,58,o),
(492,32,cs)
);
}
);
width = 960;
}
);
metricWidth = baseSymbol;
note = "$SYMBOL_ICON
$SYMBOL_SMALL";
subCategory = Other;
}
{
category = "SF-Symbol";
color = 3;
glyphname = iconArrowTopLeft.large;
layers = (
{
layerId = m01;
metricWidth = "=baseSymbol.large";
shapes = (
{
closed = 1;
nodes = (
(1038,-34,o),
(1062,-36,o),
(1079,-18,cs),
(1096,-1,o),
(1094,23,o),
(1079,38,cs),
(490,629,l),
(930,629,ls),
(953,629,o),
(971,647,o),
(971,670,cs),
(971,693,o),
(953,711,o),
(930,711,cs),
(390,711,ls),
(367,711,o),
(349,693,o),
(349,670,cs),
(349,130,ls),
(349,107,o),
(368,89,o),
(390,89,cs),
(412,89,o),
(431,107,o),
(431,130,cs),
(431,570,l),
(1022,-18,ls)
);
}
);
userData = {
RMXScaler = {
height = 150;
verticalShift = -170;
width = 150;
};
};
width = 1440;
},
{
layerId = "94F54C43-8AEE-4ED6-B3C2-2A9D33534E61";
metricWidth = "=baseSymbol.large";
shapes = (
{
closed = 1;
nodes = (
(1027,-69,o),
(1073,-71,o),
(1102,-41,cs),
(1129,-14,o),
(1131,32,o),
(1102,61,cs),
(567,597,l),
(930,597,ls),
(971,597,o),
(1003,629,o),
(1003,670,cs),
(1003,711,o),
(971,743,o),
(930,743,cs),
(390,743,ls),
(349,743,o),
(317,711,o),
(317,670,cs),
(317,130,ls),
(317,89,o),
(350,57,o),
(390,57,cs),
(430,57,o),
(463,89,o),
(463,130,cs),
(463,493,l),
(999,-41,ls)
);
}
);
userData = {
RMXScaler = {
height = 150;
verticalShift = -170;
width = 150;
};
};
width = 1440;
}
);
note = "# Required RMX Scaler

$SYMBOL_ICON
$SYMBOL_LARGE";
subCategory = Other;
userData = {
RMXScaler = {
source = iconArrowTopLeft.small;
};
};
}
{
category = "SF-Symbol";
glyphname = iconArrowTopLeft.small;
layers = (
{
layerId = m01;
shapes = (
{
closed = 1;
nodes = (
(689,80,o),
(711,80,o),
(725,95,cs),
(740,109,o),
(740,131,o),
(725,145,cs),
(347,524,l),
(620,524,ls),
(640,524,o),
(656,540,o),
(656,560,cs),
(656,580,o),
(640,596,o),
(620,596,cs),
(260,596,ls),
(240,596,o),
(224,580,o),
(224,560,cs),
(224,200,ls),
(224,180,o),
(240,164,o),
(260,164,cs),
(280,164,o),
(296,180,o),
(296,200,cs),
(296,473,l),
(675,95,ls)
);
}
);
width = 960;
},
{
layerId = "94F54C43-8AEE-4ED6-B3C2-2A9D33534E61";
shapes = (
{
closed = 1;
nodes = (
(678,45,o),
(722,45,o),
(748,72,cs),
(775,98,o),
(775,142,o),
(748,168,cs),
(424,492,l),
(620,492,ls),
(658,492,o),
(688,522,o),
(688,560,cs),
(688,598,o),
(658,628,o),
(620,628,cs),
(260,628,ls),
(222,628,o),
(192,598,o),
(192,560,cs),
(192,200,ls),
(192,162,o),
(222,132,o),
(260,132,cs),
(298,132,o),
(328,162,o),
(328,200,cs),
(328,396,l),
(652,72,ls)
);
}
);
width = 960;
}
);
metricWidth = baseSymbol;
note = $SYMBOL_SMALL;
subCategory = Other;
}
{
category = "SF-Symbol";
color = 3;
glyphname = iconArrowTopRight.large;
layers = (
{
layerId = m01;
metricWidth = "=baseSymbol.large";
shapes = (
{
closed = 1;
nodes = (
(379,-36,o),
(403,-34,o),
(419,-18,cs),
(1009,570,l),
(1009,130,ls),
(1009,107,o),
(1028,89,o),
(1050,89,cs),
(1073,89,o),
(1092,107,o),
(1092,130,cs),
(1092,670,ls),
(1092,693,o),
(1073,711,o),
(1050,711,cs),
(510,711,ls),
(488,711,o),
(469,693,o),
(469,670,cs),
(469,647,o),
(488,629,o),
(510,629,cs),
(951,629,l),
(362,38,ls),
(345,21,o),
(346,-3,o),
(362,-19,cs)
);
}
);
userData = {
RMXScaler = {
height = 150;
verticalShift = -170;
width = 150;
};
};
width = 1440;
},
{
layerId = "94F54C43-8AEE-4ED6-B3C2-2A9D33534E61";
metricWidth = "=baseSymbol.large";
shapes = (
{
closed = 1;
nodes = (
(368,-71,o),
(414,-69,o),
(442,-41,cs),
(977,493,l),
(977,130,ls),
(977,89,o),
(1010,57,o),
(1050,57,cs),
(1091,57,o),
(1124,89,o),
(1124,130,cs),
(1124,670,ls),
(1124,711,o),
(1091,743,o),
(1050,743,cs),
(510,743,ls),
(470,743,o),
(437,711,o),
(437,670,cs),
(437,629,o),
(470,597,o),
(510,597,cs),
(874,597,l),
(339,61,ls),
(309,31,o),
(312,-15,o),
(339,-42,cs)
);
}
);
userData = {
RMXScaler = {
height = 150;
verticalShift = -170;
width = 150;
};
};
width = 1440;
}
);
note = "# Required RMX Scaler

$SYMBOL_LARGE";
subCategory = Other;
userData = {
RMXScaler = {
source = iconArrowTopRight.small;
};
};
}
{
category = "SF-Symbol";
glyphname = iconArrowTopRight.small;
layers = (
{
layerId = m01;
shapes = (
{
closed = 1;
nodes = (
(249,80,o),
(271,80,o),
(285,95,cs),
(664,473,l),
(664,200,ls),
(664,180,o),
(680,164,o),
(700,164,cs),
(720,164,o),
(736,180,o),
(736,200,cs),
(736,560,ls),
(736,580,o),
(720,596,o),
(700,596,cs),
(340,596,ls),
(320,596,o),
(304,580,o),
(304,560,cs),
(304,540,o),
(320,524,o),
(340,524,cs),
(613,524,l),
(235,145,ls),
(220,131,o),
(220,109,o),
(235,95,cs)
);
}
);
width = 960;
},
{
layerId = "94F54C43-8AEE-4ED6-B3C2-2A9D33534E61";
shapes = (
{
closed = 1;
nodes = (
(238,45,o),
(282,45,o),
(308,72,cs),
(632,396,l),
(632,200,ls),
(632,162,o),
(662,132,o),
(700,132,cs),
(738,132,o),
(768,162,o),
(768,200,cs),
(768,560,ls),
(768,598,o),
(738,628,o),
(700,628,cs),
(340,628,ls),
(302,628,o),
(272,598,o),
(272,560,cs),
(272,522,o),
(302,492,o),
(340,492,cs),
(536,492,l),
(212,168,ls),
(185,142,o),
(185,98,o),
(212,72,cs)
);
}
);
width = 960;
}
);
metricWidth = baseSymbol;
note = "$SYMBOL_ICON
$SYMBOL_SMALL";
subCategory = Other;
}
{
category = "SF-Symbol";
color = 3;
glyphname = iconArrowUp.large;
layers = (
{
layerId = m01;
metricWidth = "=baseSymbol.large";
shapes = (
{
closed = 1;
nodes = (
(743,-181,o),
(762,-163,o),
(762,-140,cs),
(762,720,l),
(1082,402,ls),
(1098,386,o),
(1122,384,o),
(1139,402,cs),
(1156,419,o),
(1155,442,o),
(1139,458,cs),
(749,848,ls),
(731,866,o),
(708,864,o),
(692,848,cs),
(302,458,ls),
(283,439,o),
(288,415,o),
(302,401,cs),
(319,384,o),
(343,386,o),
(359,402,cs),
(679,720,l),
(679,-140,ls),
(679,-163,o),
(698,-181,o),
(720,-181,cs)
);
}
);
userData = {
RMXScaler = {
height = 150;
verticalShift = -170;
width = 150;
};
};
width = 1440;
},
{
layerId = "94F54C43-8AEE-4ED6-B3C2-2A9D33534E61";
metricWidth = "=baseSymbol.large";
shapes = (
{
closed = 1;
nodes = (
(761,-213,o),
(794,-181,o),
(794,-140,cs),
(794,643,l),
(1059,379,ls),
(1087,351,o),
(1133,349,o),
(1162,379,cs),
(1191,408,o),
(1190,453,o),
(1162,481,cs),
(772,871,ls),
(742,901,o),
(697,899,o),
(669,871,cs),
(279,481,ls),
(251,453,o),
(249,407,o),
(279,378,cs),
(308,349,o),
(354,351,o),
(382,379,cs),
(647,643,l),
(647,-140,ls),
(647,-181,o),
(680,-213,o),
(720,-213,cs)
);
}
);
userData = {
RMXScaler = {
height = 150;
verticalShift = -170;
width = 150;
};
};
width = 1440;
}
);
note = "# Required RMX Scaler

$SYMBOL_LARGE";
subCategory = Other;
userData = {
RMXScaler = {
source = iconArrowUp.small;
};
};
}
{
glyphname = iconArrowUp.small;
layers = (
{
layerId = m01;
shapes = (
{
closed = 1;
nodes = (
(500,-16,o),
(516,0,o),
(516,20,cs),
(516,573,l),
(715,375,ls),
(729,360,o),
(751,360,o),
(765,375,cs),
(780,389,o),
(780,411,o),
(765,425,cs),
(505,685,ls),
(491,700,o),
(469,700,o),
(455,685,cs),
(195,425,ls),
(180,411,o),
(180,389,o),
(195,375,cs),
(209,360,o),
(231,360,o),
(245,375,cs),
(444,573,l),
(444,20,ls),
(444,0,o),
(460,-16,o),
(480,-16,cs)
);
}
);
width = 960;
},
{
layerId = "94F54C43-8AEE-4ED6-B3C2-2A9D33534E61";
shapes = (
{
closed = 1;
nodes = (
(518,-48,o),
(548,-18,o),
(548,20,cs),
(548,496,l),
(692,352,ls),
(718,325,o),
(762,325,o),
(788,352,cs),
(815,378,o),
(815,422,o),
(788,448,cs),
(528,708,ls),
(502,735,o),
(458,735,o),
(432,708,cs),
(172,448,ls),
(145,422,o),
(145,378,o),
(172,352,cs),
(198,325,o),
(242,325,o),
(268,352,cs),
(412,496,l),
(412,20,ls),
(412,-18,o),
(442,-48,o),
(480,-48,cs)
);
}
);
width = 960;
}
);
metricWidth = baseSymbol;
note = $SYMBOL_SMALL;
}
{
color = 3;
glyphname = iconArrowUpDown.large;
layers = (
{
layerId = m01;
metricWidth = "=baseSymbol.large";
shapes = (
{
closed = 1;
nodes = (
(710,-216,o),
(733,-214,o),
(749,-198,cs),
(1049,102,ls),
(1065,118,o),
(1066,141,o),
(1049,158,cs),
(1033,174,o),
(1010,176,o),
(992,158,cs),
(762,-70,l),
(762,750,l),
(992,522,ls),
(1008,506,o),
(1032,504,o),
(1049,522,cs),
(1066,539,o),
(1065,562,o),
(1049,578,cs),
(749,878,ls),
(731,896,o),
(708,894,o),
(692,878,cs),
(392,578,ls),
(373,559,o),
(378,535,o),
(392,521,cs),
(409,504,o),
(433,506,o),
(449,522,cs),
(679,750,l),
(679,-70,l),
(449,158,ls),
(433,174,o),
(409,176,o),
(392,159,cs),
(376,143,o),
(374,120,o),
(392,102,cs),
(692,-198,ls)
);
}
);
userData = {
RMXScaler = {
height = 150;
verticalShift = -170;
width = 150;
};
};
width = 1440;
},
{
layerId = "94F54C43-8AEE-4ED6-B3C2-2A9D33534E61";
metricWidth = "=baseSymbol.large";
shapes = (
{
closed = 1;
nodes = (
(698,-250,o),
(743,-250,o),
(772,-221,cs),
(1072,79,ls),
(1100,107,o),
(1101,152,o),
(1072,181,cs),
(1044,209,o),
(999,211,o),
(969,181,cs),
(794,7,l),
(794,673,l),
(969,499,ls),
(997,471,o),
(1043,469,o),
(1072,499,cs),
(1101,528,o),
(1100,573,o),
(1072,601,cs),
(772,901,ls),
(742,931,o),
(697,929,o),
(669,901,cs),
(369,601,ls),
(341,573,o),
(339,527,o),
(369,498,cs),
(398,469,o),
(444,471,o),
(472,499,cs),
(647,673,l),
(647,7,l),
(472,181,ls),
(443,210,o),
(397,210,o),
(369,182,cs),
(342,155,o),
(338,110,o),
(369,79,cs),
(669,-221,ls)
);
}
);
userData = {
RMXScaler = {
height = 150;
verticalShift = -170;
width = 150;
};
};
width = 1440;
}
);
note = "# Required RMX Scaler

$SYMBOL_LARGE";
userData = {
RMXScaler = {
source = iconArrowUpDown.small;
};
};
}
{
category = "SF-Symbol";
glyphname = iconArrowUpDown.small;
layers = (
{
layerId = m01;
shapes = (
{
closed = 1;
nodes = (
(469,-40,o),
(491,-40,o),
(505,-25,cs),
(705,175,ls),
(720,189,o),
(720,211,o),
(705,225,cs),
(691,240,o),
(669,240,o),
(655,225,cs),
(516,87,l),
(516,593,l),
(655,455,ls),
(669,440,o),
(691,440,o),
(705,455,cs),
(720,469,o),
(720,491,o),
(705,505,cs),
(505,705,ls),
(491,720,o),
(469,720,o),
(455,705,cs),
(255,505,ls),
(240,491,o),
(240,469,o),
(255,455,cs),
(269,440,o),
(291,440,o),
(305,455,cs),
(444,593,l),
(444,87,l),
(305,225,ls),
(291,240,o),
(269,240,o),
(255,225,cs),
(240,211,o),
(240,189,o),
(255,175,cs),
(455,-25,ls)
);
}
);
width = 960;
},
{
layerId = "94F54C43-8AEE-4ED6-B3C2-2A9D33534E61";
shapes = (
{
closed = 1;
nodes = (
(458,-75,o),
(502,-75,o),
(528,-48,cs),
(728,152,ls),
(755,178,o),
(755,222,o),
(728,248,cs),
(702,275,o),
(658,275,o),
(632,248,cs),
(548,164,l),
(548,516,l),
(632,432,ls),
(658,405,o),
(702,405,o),
(728,432,cs),
(755,458,o),
(755,502,o),
(728,528,cs),
(528,728,ls),
(502,755,o),
(458,755,o),
(432,728,cs),
(232,528,ls),
(205,502,o),
(205,458,o),
(232,432,cs),
(258,405,o),
(302,405,o),
(328,432,cs),
(412,516,l),
(412,164,l),
(328,248,ls),
(302,275,o),
(258,275,o),
(232,248,cs),
(205,222,o),
(205,178,o),
(232,152,cs),
(432,-48,ls)
);
}
);
width = 960;
}
);
metricWidth = baseSymbol;
note = "$SYMBOL_ICON
$SYMBOL_SMALL";
subCategory = Other;
}
{
category = "SF-Symbol";
color = 3;
glyphname = iconCheck.large;
layers = (
{
layerId = m01;
metricWidth = "=baseSymbol.large";
shapes = (
{
closed = 1;
nodes = (
(619,14,o),
(628,18,o),
(636,26,cs),
(1177,596,ls),
(1195,615,o),
(1191,640,o),
(1176,655,cs),
(1159,671,o),
(1134,671,o),
(1118,654,cs),
(604,115,l),
(321,397,ls),
(304,414,o),
(281,414,o),
(264,397,cs),
(248,381,o),
(246,358,o),
(264,340,cs),
(577,27,ls),
(584,20,o),
(595,14,o),
(605,14,cs)
);
}
);
userData = {
RMXScaler = {
height = 150;
verticalShift = -170;
width = 150;
};
};
width = 1440;
},
{
layerId = "94F54C43-8AEE-4ED6-B3C2-2A9D33534E61";
metricWidth = "=baseSymbol.large";
shapes = (
{
closed = 1;
nodes = (
(623,-18,o),
(644,-12,o),
(659,4,cs),
(1200,574,ls),
(1231,607,o),
(1224,653,o),
(1198,678,cs),
(1168,707,o),
(1122,704,o),
(1095,676,cs),
(604,160,l),
(344,420,ls),
(315,449,o),
(270,449,o),
(241,420,cs),
(213,392,o),
(211,347,o),
(241,317,cs),
(554,4,ls),
(569,-11,o),
(589,-18,o),
(606,-18,cs)
);
}
);
userData = {
RMXScaler = {
height = 150;
verticalShift = -170;
width = 150;
};
};
width = 1440;
}
);
note = "# Required RMX Scaler

$SYMBOL_ICON
$SYMBOL_LARGE";
subCategory = Other;
userData = {
RMXScaler = {
source = iconCheck.small;
};
};
}
{
category = "SF-Symbol";
glyphname = iconCheck.small;
layers = (
{
layerId = m01;
shapes = (
{
closed = 1;
nodes = (
(414,114,o),
(423,118,o),
(430,125,cs),
(791,505,ls),
(805,520,o),
(804,542,o),
(790,556,cs),
(775,570,o),
(753,569,o),
(739,555,cs),
(403,202,l),
(220,384,ls),
(206,399,o),
(184,399,o),
(170,384,cs),
(155,370,o),
(155,348,o),
(170,334,cs),
(379,125,ls),
(385,118,o),
(395,114,o),
(404,114,cs)
);
}
);
width = 960;
},
{
layerId = "94F54C43-8AEE-4ED6-B3C2-2A9D33534E61";
shapes = (
{
closed = 1;
nodes = (
(423,82,o),
(441,90,o),
(453,103,cs),
(814,483,ls),
(840,510,o),
(839,553,o),
(812,579,cs),
(785,605,o),
(742,604,o),
(716,577,cs),
(403,247,l),
(243,407,ls),
(217,434,o),
(173,434,o),
(147,407,cs),
(120,381,o),
(120,337,o),
(147,311,cs),
(356,102,ls),
(369,89,o),
(387,82,o),
(405,82,cs)
);
}
);
width = 960;
}
);
metricWidth = baseSymbol;
note = $SYMBOL_SMALL;
subCategory = Other;
}
{
category = "SF-Symbol";
color = 3;
glyphname = iconCircle.large;
layers = (
{
layerId = m01;
metricWidth = "=baseSymbol.large";
shapes = (
{
closed = 1;
nodes = (
(1040,-241,o),
(1301,21,o),
(1301,340,cs),
(1301,659,o),
(1040,921,o),
(720,921,cs),
(401,921,o),
(139,660,o),
(139,340,cs),
(139,20,o),
(401,-241,o),
(720,-241,cs)
);
},
{
closed = 1;
nodes = (
(447,-159,o),
(221,66,o),
(221,340,cs),
(221,614,o),
(447,839,o),
(720,839,cs),
(994,839,o),
(1219,613,o),
(1219,340,cs),
(1219,67,o),
(994,-159,o),
(720,-159,cs)
);
}
);
userData = {
RMXScaler = {
height = 150;
verticalShift = -170;
width = 150;
};
};
width = 1440;
},
{
layerId = "94F54C43-8AEE-4ED6-B3C2-2A9D33534E61";
metricWidth = "=baseSymbol.large";
shapes = (
{
closed = 1;
nodes = (
(1058,-273,o),
(1333,3,o),
(1333,340,cs),
(1333,677,o),
(1058,953,o),
(720,953,cs),
(383,953,o),
(107,678,o),
(107,340,cs),
(107,2,o),
(383,-273,o),
(720,-273,cs)
);
},
{
closed = 1;
nodes = (
(463,-127,o),
(253,82,o),
(253,340,cs),
(253,598,o),
(463,807,o),
(720,807,cs),
(978,807,o),
(1187,597,o),
(1187,340,cs),
(1187,83,o),
(978,-127,o),
(720,-127,cs)
);
}
);
userData = {
RMXScaler = {
height = 150;
verticalShift = -170;
width = 150;
};
};
width = 1440;
}
);
note = "# Required RMX Scaler

$SYMBOL_ICON
$SYMBOL_LARGE
$SYMBOL_OUTLINE
$SYMBOL_CIRCLE";
subCategory = Other;
userData = {
RMXScaler = {
source = iconCircle.small;
};
};
}
{
category = "SF-Symbol";
glyphname = iconCircle.small;
layers = (
{
layerId = m01;
shapes = (
{
closed = 1;
nodes = (
(698,-56,o),
(876,122,o),
(876,340,cs),
(876,558,o),
(698,736,o),
(480,736,cs),
(262,736,o),
(84,558,o),
(84,340,cs),
(84,122,o),
(262,-56,o),
(480,-56,cs)
);
},
{
closed = 1;
nodes = (
(302,16,o),
(156,162,o),
(156,340,cs),
(156,518,o),
(302,664,o),
(480,664,cs),
(658,664,o),
(804,518,o),
(804,340,cs),
(804,162,o),
(658,16,o),
(480,16,cs)
);
}
);
width = 960;
},
{
layerId = "94F54C43-8AEE-4ED6-B3C2-2A9D33534E61";
shapes = (
{
closed = 1;
nodes = (
(716,-88,o),
(908,104,o),
(908,340,cs),
(908,576,o),
(716,768,o),
(480,768,cs),
(244,768,o),
(52,576,o),
(52,340,cs),
(52,104,o),
(244,-88,o),
(480,-88,cs)
);
},
{
closed = 1;
nodes = (
(318,48,o),
(188,178,o),
(188,340,cs),
(188,502,o),
(318,632,o),
(480,632,cs),
(642,632,o),
(772,502,o),
(772,340,cs),
(772,178,o),
(642,48,o),
(480,48,cs)
);
}
);
width = 960;
}
);
metricWidth = baseSymbol;
note = "$SYMBOL_SMALL
$SYMBOL_OUTLINE
$SYMBOL_CIRCLE";
subCategory = Other;
}
{
category = "SF-Symbol";
glyphname = iconCircleFill.small;
layers = (
{
layerId = m01;
shapes = (
{
closed = 1;
nodes = (
(698,-56,o),
(876,122,o),
(876,340,cs),
(876,558,o),
(698,736,o),
(480,736,cs),
(262,736,o),
(84,558,o),
(84,340,cs),
(84,122,o),
(262,-56,o),
(480,-56,cs)
);
}
);
width = 960;
},
{
layerId = "94F54C43-8AEE-4ED6-B3C2-2A9D33534E61";
shapes = (
{
closed = 1;
nodes = (
(716,-88,o),
(908,104,o),
(908,340,cs),
(908,576,o),
(716,768,o),
(480,768,cs),
(244,768,o),
(52,576,o),
(52,340,cs),
(52,104,o),
(244,-88,o),
(480,-88,cs)
);
}
);
width = 960;
}
);
metricWidth = baseSymbol;
note = "$SYMBOL_ICON
$SYMBOL_SMALL
$SYMBOL_FILL
$SYMBOL_CIRCLE";
subCategory = Other;
}
{
color = 3;
glyphname = iconClose.large;
layers = (
{
layerId = m01;
metricWidth = "=baseSymbol.large";
shapes = (
{
closed = 1;
nodes = (
(304,-111,o),
(328,-109,o),
(344,-93,cs),
(720,282,l),
(1097,-93,ls),
(1113,-109,o),
(1137,-111,o),
(1154,-93,cs),
(1172,-75,o),
(1168,-51,o),
(1154,-37,cs),
(779,340,l),
(1154,717,ls),
(1170,733,o),
(1171,756,o),
(1154,773,cs),
(1138,789,o),
(1115,791,o),
(1097,773,cs),
(720,399,l),
(344,773,ls),
(328,789,o),
(304,791,o),
(287,774,cs),
(271,758,o),
(269,735,o),
(287,717,cs),
(662,340,l),
(287,-37,ls),
(270,-54,o),
(271,-78,o),
(287,-94,cs)
);
}
);
userData = {
RMXScaler = {
height = 150;
verticalShift = -170;
width = 150;
};
};
width = 1440;
},
{
layerId = "94F54C43-8AEE-4ED6-B3C2-2A9D33534E61";
metricWidth = "=baseSymbol.large";
shapes = (
{
closed = 1;
nodes = (
(293,-146,o),
(339,-144,o),
(367,-116,cs),
(720,237,l),
(1074,-116,ls),
(1102,-144,o),
(1148,-146,o),
(1177,-116,cs),
(1205,-88,o),
(1206,-43,o),
(1177,-14,cs),
(824,340,l),
(1177,694,ls),
(1205,722,o),
(1206,767,o),
(1177,796,cs),
(1149,824,o),
(1104,826,o),
(1074,796,cs),
(720,444,l),
(367,796,ls),
(335,828,o),
(289,822,o),
(264,797,cs),
(237,770,o),
(233,725,o),
(264,694,cs),
(617,340,l),
(264,-14,ls),
(235,-43,o),
(236,-89,o),
(264,-117,cs)
);
}
);
userData = {
RMXScaler = {
height = 150;
verticalShift = -170;
width = 150;
};
};
width = 1440;
}
);
note = "# Required RMX Scaler

$SYMBOL_LARGE";
userData = {
RMXScaler = {
source = iconClose.small;
};
};
}
{
category = "SF-Symbol";
glyphname = iconClose.small;
layers = (
{
layerId = m01;
shapes = (
{
closed = 1;
nodes = (
(199,30,o),
(221,30,o),
(235,45,cs),
(480,289,l),
(725,45,ls),
(739,30,o),
(761,30,o),
(775,45,cs),
(790,59,o),
(790,81,o),
(775,95,cs),
(531,340,l),
(775,585,ls),
(790,599,o),
(790,621,o),
(775,635,cs),
(761,650,o),
(739,650,o),
(725,635,cs),
(480,391,l),
(235,635,ls),
(221,650,o),
(199,650,o),
(185,635,cs),
(170,621,o),
(170,599,o),
(185,585,cs),
(429,340,l),
(185,95,ls),
(170,81,o),
(170,59,o),
(185,45,cs)
);
}
);
width = 960;
},
{
layerId = "94F54C43-8AEE-4ED6-B3C2-2A9D33534E61";
shapes = (
{
closed = 1;
nodes = (
(188,-5,o),
(232,-5,o),
(258,22,cs),
(480,244,l),
(702,22,ls),
(728,-5,o),
(772,-5,o),
(798,22,cs),
(825,48,o),
(825,92,o),
(798,118,cs),
(576,340,l),
(798,562,ls),
(825,588,o),
(825,632,o),
(798,658,cs),
(772,685,o),
(728,685,o),
(702,658,cs),
(480,436,l),
(258,658,ls),
(232,685,o),
(188,685,o),
(162,658,cs),
(135,632,o),
(135,588,o),
(162,562,cs),
(384,340,l),
(162,118,ls),
(135,92,o),
(135,48,o),
(162,22,cs)
);
}
);
width = 960;
}
);
metricWidth = baseSymbol;
note = $SYMBOL_SMALL;
subCategory = Other;
}
{
category = "SF-Symbol";
color = 3;
glyphname = iconHeart.large;
layers = (
{
layerId = m01;
metricWidth = "=baseSymbol.large";
shapes = (
{
closed = 1;
nodes = (
(744,-199,o),
(765,-190,o),
(780,-175,cs),
(1204,254,ls),
(1273,324,o),
(1301,412,o),
(1301,496,cs),
(1301,682,o),
(1159,840,o),
(969,840,cs),
(874,840,o),
(783,799,o),
(720,726,c),
(654,803,o),
(561,840,o),
(472,840,cs),
(281,840,o),
(139,682,o),
(139,496,cs),
(139,411,o),
(168,323,o),
(236,254,cs),
(660,-175,ls),
(678,-193,o),
(699,-199,o),
(720,-199,cs)
);
},
{
closed = 1;
nodes = (
(296,312,ls),
(246,363,o),
(221,431,o),
(221,498,cs),
(221,636,o),
(327,757,o),
(471,757,cs),
(545,757,o),
(619,723,o),
(668,656,cs),
(682,637,o),
(692,614,o),
(720,614,cs),
(746,614,o),
(749,627,o),
(772,658,cs),
(821,724,o),
(895,757,o),
(969,757,cs),
(1111,757,o),
(1219,637,o),
(1219,498,cs),
(1219,434,o),
(1196,365,o),
(1144,312,cs),
(720,-118,l)
);
}
);
userData = {
RMXScaler = {
height = 150;
verticalShift = -170;
width = 150;
};
};
width = 1440;
},
{
layerId = "94F54C43-8AEE-4ED6-B3C2-2A9D33534E61";
metricWidth = "=baseSymbol.large";
shapes = (
{
closed = 1;
nodes = (
(750,-231,o),
(780,-220,o),
(803,-197,cs),
(1227,232,ls),
(1301,307,o),
(1333,403,o),
(1333,497,cs),
(1333,704,o),
(1171,872,o),
(970,872,cs),
(879,872,o),
(788,837,o),
(720,770,c),
(654,835,o),
(564,872,o),
(471,872,cs),
(268,872,o),
(107,703,o),
(107,497,cs),
(107,405,o),
(138,308,o),
(213,232,cs),
(637,-197,ls),
(660,-220,o),
(689,-231,o),
(720,-231,cs)
);
},
{
closed = 1;
nodes = (
(318,334,ls),
(273,379,o),
(253,440,o),
(253,497,cs),
(253,621,o),
(349,726,o),
(471,726,cs),
(538,726,o),
(602,694,o),
(643,637,cs),
(669,601,o),
(682,582,o),
(720,582,cs),
(756,582,o),
(767,596,o),
(795,635,cs),
(840,698,o),
(907,726,o),
(969,726,cs),
(1091,726,o),
(1187,621,o),
(1187,497,cs),
(1187,435,o),
(1164,376,o),
(1122,334,cs),
(720,-72,l)
);
}
);
userData = {
RMXScaler = {
height = 150;
verticalShift = -170;
width = 150;
};
};
width = 1440;
}
);
note = "# Required RMX Scaler

$SYMBOL_ICON
$SYMBOL_LARGE
$SYMBOL_OUTLINE";
subCategory = Other;
userData = {
RMXScaler = {
source = iconHeart.small;
};
};
}
{
category = "SF-Symbol";
color = 3;
glyphname = iconHeartFill.large;
layers = (
{
layerId = m01;
metricWidth = "=baseSymbol.large";
shapes = (
{
closed = 1;
nodes = (
(744,-199,o),
(765,-190,o),
(780,-175,cs),
(1204,254,ls),
(1273,324,o),
(1301,412,o),
(1301,496,cs),
(1301,682,o),
(1159,840,o),
(969,840,cs),
(874,840,o),
(783,799,o),
(720,726,c),
(654,803,o),
(561,840,o),
(472,840,cs),
(281,840,o),
(139,682,o),
(139,496,cs),
(139,411,o),
(168,323,o),
(236,254,cs),
(660,-175,ls),
(678,-193,o),
(699,-199,o),
(720,-199,cs)
);
}
);
userData = {
RMXScaler = {
height = 150;
verticalShift = -170;
width = 150;
};
};
width = 1440;
},
{
layerId = "94F54C43-8AEE-4ED6-B3C2-2A9D33534E61";
metricWidth = "=baseSymbol.large";
shapes = (
{
closed = 1;
nodes = (
(750,-231,o),
(780,-220,o),
(803,-197,cs),
(1227,232,ls),
(1301,307,o),
(1333,403,o),
(1333,497,cs),
(1333,704,o),
(1171,872,o),
(970,872,cs),
(879,872,o),
(788,837,o),
(720,770,c),
(654,835,o),
(564,872,o),
(471,872,cs),
(268,872,o),
(107,703,o),
(107,497,cs),
(107,405,o),
(138,308,o),
(213,232,cs),
(637,-197,ls),
(660,-220,o),
(689,-231,o),
(720,-231,cs)
);
}
);
userData = {
RMXScaler = {
height = 150;
verticalShift = -170;
width = 150;
};
};
width = 1440;
}
);
note = "# Required RMX Scaler

$SYMBOL_ICON
$SYMBOL_LARGE
$SYMBOL_FILL";
subCategory = Other;
userData = {
RMXScaler = {
source = iconHeartFill.small;
};
};
}
{
category = "SF-Symbol";
glyphname = iconHeartFill.small;
layers = (
{
layerId = m01;
shapes = (
{
closed = 1;
nodes = (
(497,-28,o),
(514,-22,o),
(526,-9,cs),
(809,277,ls),
(854,324,o),
(876,384,o),
(876,444,cs),
(876,574,o),
(776,682,o),
(646,682,cs),
(585,682,o),
(524,657,o),
(480,609,c),
(436,657,o),
(375,682,o),
(314,682,cs),
(184,682,o),
(84,574,o),
(84,444,cs),
(84,384,o),
(106,324,o),
(151,277,cs),
(434,-9,ls),
(447,-22,o),
(463,-28,o),
(480,-28,cs)
);
}
);
width = 960;
},
{
layerId = "94F54C43-8AEE-4ED6-B3C2-2A9D33534E61";
shapes = (
{
closed = 1;
nodes = (
(505,-60,o),
(530,-50,o),
(549,-31,cs),
(832,255,ls),
(883,308,o),
(908,376,o),
(908,445,cs),
(908,596,o),
(788,714,o),
(647,714,cs),
(587,714,o),
(528,693,o),
(480,653,c),
(432,693,o),
(373,714,o),
(313,714,cs),
(171,714,o),
(52,595,o),
(52,445,cs),
(52,376,o),
(77,308,o),
(128,255,cs),
(411,-31,ls),
(430,-50,o),
(455,-60,o),
(480,-60,cs)
);
}
);
width = 960;
}
);
metricWidth = baseSymbol;
note = "$SYMBOL_ICON
$SYMBOL_SMALL
$SYMBOL_FILL";
subCategory = Other;
}
{
color = 3;
glyphname = iconSquare.large;
layers = (
{
layerId = m01;
metricWidth = "=baseSymbol.large";
shapes = (
{
closed = 1;
nodes = (
(1044,-181,ls),
(1181,-181,o),
(1241,-121,o),
(1241,16,cs),
(1241,664,ls),
(1241,801,o),
(1181,861,o),
(1044,861,cs),
(396,861,ls),
(259,861,o),
(199,801,o),
(199,664,cs),
(199,16,ls),
(199,-121,o),
(259,-181,o),
(396,-181,cs)
);
},
{
closed = 1;
nodes = (
(300,-99,o),
(281,-80,o),
(281,16,cs),
(281,664,ls),
(281,759,o),
(300,779,o),
(396,779,cs),
(1044,779,ls),
(1139,779,o),
(1159,759,o),
(1159,664,cs),
(1159,16,ls),
(1159,-80,o),
(1139,-99,o),
(1044,-99,cs),
(396,-99,ls)
);
}
);
userData = {
RMXScaler = {
height = 150;
verticalShift = -170;
width = 150;
};
};
width = 1440;
},
{
layerId = "94F54C43-8AEE-4ED6-B3C2-2A9D33534E61";
metricWidth = "=baseSymbol.large";
shapes = (
{
closed = 1;
nodes = (
(1044,-213,ls),
(1199,-213,o),
(1273,-139,o),
(1273,16,cs),
(1273,664,ls),
(1273,819,o),
(1199,893,o),
(1044,893,cs),
(396,893,ls),
(241,893,o),
(167,819,o),
(167,664,cs),
(167,16,ls),
(167,-139,o),
(241,-213,o),
(396,-213,cs)
);
},
{
closed = 1;
nodes = (
(330,-67,o),
(313,-50,o),
(313,16,cs),
(313,664,ls),
(313,731,o),
(330,747,o),
(396,747,cs),
(1044,747,ls),
(1111,747,o),
(1127,731,o),
(1127,664,cs),
(1127,16,ls),
(1127,-50,o),
(1111,-67,o),
(1044,-67,cs),
(396,-67,ls)
);
}
);
userData = {
RMXScaler = {
height = 150;
verticalShift = -170;
width = 150;
};
};
width = 1440;
}
);
note = "# Required RMX Scaler

$SYMBOL_LARGE
$SYMBOL_OUTLINE
$SYMBOL_SQUARE";
userData = {
RMXScaler = {
source = iconSquare.small;
};
};
}
{
category = "SF-Symbol";
glyphname = iconSquare.small;
layers = (
{
background = {
shapes = (
{
attr = {
strokeHeight = 72;
strokeWidth = 72;
};
closed = 1;
nodes = (
(696,20,ls),
(772,20,o),
(800,48,o),
(800,124,cs),
(800,556,ls),
(800,632,o),
(772,660,o),
(696,660,cs),
(264,660,ls),
(188,660,o),
(160,632,o),
(160,556,cs),
(160,124,ls),
(160,48,o),
(188,20,o),
(264,20,cs)
);
}
);
};
layerId = m01;
shapes = (
{
closed = 1;
nodes = (
(696,-16,ls),
(792,-16,o),
(836,28,o),
(836,124,cs),
(836,556,ls),
(836,652,o),
(792,696,o),
(696,696,cs),
(264,696,ls),
(168,696,o),
(124,652,o),
(124,556,cs),
(124,124,ls),
(124,28,o),
(168,-16,o),
(264,-16,cs)
);
},
{
closed = 1;
nodes = (
(208,56,o),
(196,68,o),
(196,124,cs),
(196,556,ls),
(196,612,o),
(208,624,o),
(264,624,cs),
(696,624,ls),
(752,624,o),
(764,612,o),
(764,556,cs),
(764,124,ls),
(764,68,o),
(752,56,o),
(696,56,cs),
(264,56,ls)
);
}
);
width = 960;
},
{
background = {
shapes = (
{
attr = {
strokeHeight = 136;
strokeWidth = 136;
};
closed = 1;
nodes = (
(696,20,ls),
(772,20,o),
(800,48,o),
(800,124,cs),
(800,556,ls),
(800,632,o),
(772,660,o),
(696,660,cs),
(264,660,ls),
(188,660,o),
(160,632,o),
(160,556,cs),
(160,124,ls),
(160,48,o),
(188,20,o),
(264,20,cs)
);
}
);
};
layerId = "94F54C43-8AEE-4ED6-B3C2-2A9D33534E61";
shapes = (
{
closed = 1;
nodes = (
(696,-48,ls),
(810,-48,o),
(868,10,o),
(868,124,cs),
(868,556,ls),
(868,670,o),
(810,728,o),
(696,728,cs),
(264,728,ls),
(150,728,o),
(92,670,o),
(92,556,cs),
(92,124,ls),
(92,10,o),
(150,-48,o),
(264,-48,cs)
);
},
{
closed = 1;
nodes = (
(238,88,o),
(228,98,o),
(228,124,cs),
(228,556,ls),
(228,584,o),
(238,592,o),
(264,592,cs),
(696,592,ls),
(724,592,o),
(732,584,o),
(732,556,cs),
(732,124,ls),
(732,98,o),
(724,88,o),
(696,88,cs),
(264,88,ls)
);
}
);
width = 960;
},
{
associatedMasterId = m01;
layerId = "35A7B05E-FAFF-4E01-B084-FC291198552E";
name = "Sep 8, 23 10:07";
shapes = (
{
closed = 1;
nodes = (
(674,-16,ls),
(694,-16,o),
(712,-16,o),
(728,-14,cs),
(744,-14,o),
(758,-10,o),
(772,-4,cs),
(794,8,o),
(812,26,o),
(824,48,cs),
(830,62,o),
(834,76,o),
(834,92,cs),
(836,108,o),
(836,126,o),
(836,146,cs),
(836,534,ls),
(836,556,o),
(838,604,o),
(824,632,cs),
(812,654,o),
(794,672,o),
(772,684,cs),
(744,698,o),
(696,696,o),
(674,696,cs),
(286,696,ls),
(264,696,o),
(216,698,o),
(188,684,cs),
(166,672,o),
(148,654,o),
(136,632,cs),
(122,604,o),
(124,556,o),
(124,534,cs),
(124,146,ls),
(124,126,o),
(124,108,o),
(126,92,cs),
(126,76,o),
(130,62,o),
(136,48,cs),
(148,26,o),
(166,8,o),
(188,-4,cs),
(202,-10,o),
(216,-14,o),
(232,-14,cs),
(248,-16,o),
(266,-16,o),
(286,-16,cs)
);
},
{
closed = 1;
nodes = (
(228,58,o),
(222,60,o),
(220,60,c),
(212,66,o),
(206,72,o),
(200,80,c),
(200,82,o),
(198,88,o),
(196,98,c),
(196,148,l),
(196,532,l),
(196,582,ls),
(196,592,o),
(200,598,o),
(200,600,c),
(206,608,o),
(212,614,o),
(220,620,c),
(222,620,o),
(228,624,o),
(238,624,cs),
(288,624,l),
(672,624,l),
(722,624,l),
(732,622,o),
(738,620,o),
(740,620,c),
(748,614,o),
(754,608,o),
(760,600,c),
(760,598,o),
(762,592,o),
(764,582,c),
(764,532,l),
(764,148,l),
(764,98,l),
(762,88,o),
(760,82,o),
(760,80,c),
(754,72,o),
(748,66,o),
(740,60,c),
(738,60,o),
(732,58,o),
(722,56,c),
(672,56,l),
(288,56,l),
(238,56,l)
);
}
);
width = 960;
},
{
associatedMasterId = "94F54C43-8AEE-4ED6-B3C2-2A9D33534E61";
background = {
shapes = (
{
attr = {
strokeHeight = 136;
strokeWidth = 136;
};
closed = 1;
nodes = (
(696,20,ls),
(772,20,o),
(800,48,o),
(800,124,cs),
(800,556,ls),
(800,632,o),
(772,660,o),
(696,660,cs),
(264,660,ls),
(188,660,o),
(160,632,o),
(160,556,cs),
(160,124,ls),
(160,48,o),
(188,20,o),
(264,20,cs)
);
}
);
};
layerId = "21990560-4108-4EFD-93F7-B780B3B8E533";
name = "Sep 8, 23 10:24";
shapes = (
{
closed = 1;
nodes = (
(674,-48,ls),
(694,-48,o),
(714,-48,o),
(730,-46,c),
(748,-46,o),
(768,-42,o),
(788,-32,cs),
(816,-18,o),
(838,4,o),
(852,32,cs),
(862,52,o),
(866,72,o),
(866,90,c),
(868,106,o),
(868,126,o),
(868,146,cs),
(868,534,ls),
(868,554,o),
(868,574,o),
(866,590,c),
(866,608,o),
(862,628,o),
(852,648,cs),
(838,676,o),
(816,698,o),
(788,712,cs),
(768,722,o),
(748,726,o),
(730,726,c),
(714,728,o),
(694,728,o),
(674,728,cs),
(288,728,l),
(286,728,ls),
(266,728,o),
(246,728,o),
(230,726,c),
(212,726,o),
(192,722,o),
(172,712,cs),
(144,698,o),
(122,676,o),
(108,648,cs),
(98,628,o),
(94,608,o),
(94,590,c),
(92,574,o),
(92,554,o),
(92,534,cs),
(92,532,l),
(92,146,ls),
(92,126,o),
(92,106,o),
(94,90,c),
(94,72,o),
(98,52,o),
(108,32,cs),
(122,4,o),
(144,-18,o),
(172,-32,cs),
(192,-42,o),
(212,-46,o),
(230,-46,c),
(246,-48,o),
(266,-48,o),
(286,-48,cs)
);
},
{
closed = 1;
nodes = (
(236,90,o),
(234,90,o),
(234,90,c),
(232,90,o),
(230,92,o),
(230,94,c),
(230,94,o),
(230,96,o),
(228,100,c),
(228,148,l),
(228,532,l),
(228,580,l),
(230,584,o),
(230,586,o),
(230,586,c),
(230,588,o),
(232,590,o),
(234,590,c),
(234,590,o),
(236,590,o),
(240,592,c),
(288,592,l),
(672,592,l),
(720,592,l),
(724,590,o),
(726,590,o),
(726,590,c),
(728,590,o),
(730,588,o),
(730,586,c),
(730,586,o),
(730,584,o),
(732,580,c),
(732,532,l),
(732,148,l),
(732,100,l),
(730,96,o),
(730,94,o),
(730,94,c),
(730,92,o),
(728,90,o),
(726,90,c),
(726,90,o),
(724,90,o),
(720,88,c),
(672,88,l),
(288,88,l),
(240,88,l)
);
}
);
width = 960;
}
);
metricWidth = baseSymbol;
note = "$SYMBOL_ICON
$SYMBOL_SMALL
$SYMBOL_OUTLINE
$SYMBOL_SQUARE";
subCategory = Other;
}
{
category = "SF-Symbol";
color = 3;
glyphname = iconSquareFill.large;
layers = (
{
layerId = m01;
metricWidth = "=baseSymbol.large";
shapes = (
{
closed = 1;
nodes = (
(1044,-181,ls),
(1181,-181,o),
(1241,-121,o),
(1241,16,cs),
(1241,664,ls),
(1241,801,o),
(1181,861,o),
(1044,861,cs),
(396,861,ls),
(259,861,o),
(199,801,o),
(199,664,cs),
(199,16,ls),
(199,-121,o),
(259,-181,o),
(396,-181,cs)
);
}
);
userData = {
RMXScaler = {
height = 150;
verticalShift = -170;
width = 150;
};
};
width = 1440;
},
{
layerId = "94F54C43-8AEE-4ED6-B3C2-2A9D33534E61";
metricWidth = "=baseSymbol.large";
shapes = (
{
closed = 1;
nodes = (
(1044,-213,ls),
(1199,-213,o),
(1273,-139,o),
(1273,16,cs),
(1273,664,ls),
(1273,819,o),
(1199,893,o),
(1044,893,cs),
(396,893,ls),
(241,893,o),
(167,819,o),
(167,664,cs),
(167,16,ls),
(167,-139,o),
(241,-213,o),
(396,-213,cs)
);
}
);
userData = {
RMXScaler = {
height = 150;
verticalShift = -170;
width = 150;
};
};
width = 1440;
}
);
note = "# Required RMX Scaler

$SYMBOL_LARGE
$SYMBOL_FILL
$SYMBOL_SQUARE";
subCategory = Other;
userData = {
RMXScaler = {
source = iconSquareFill.small;
};
};
}
{
glyphname = iconSquareFill.small;
layers = (
{
layerId = m01;
shapes = (
{
closed = 1;
nodes = (
(696,-16,ls),
(792,-16,o),
(836,28,o),
(836,124,cs),
(836,556,ls),
(836,652,o),
(792,696,o),
(696,696,cs),
(264,696,ls),
(168,696,o),
(124,652,o),
(124,556,cs),
(124,124,ls),
(124,28,o),
(168,-16,o),
(264,-16,cs)
);
}
);
width = 960;
},
{
layerId = "94F54C43-8AEE-4ED6-B3C2-2A9D33534E61";
shapes = (
{
closed = 1;
nodes = (
(696,-48,ls),
(810,-48,o),
(868,10,o),
(868,124,cs),
(868,556,ls),
(868,670,o),
(810,728,o),
(696,728,cs),
(264,728,ls),
(150,728,o),
(92,670,o),
(92,556,cs),
(92,124,ls),
(92,10,o),
(150,-48,o),
(264,-48,cs)
);
}
);
width = 960;
}
);
metricWidth = baseSymbol;
note = "$SYMBOL_SMALL
$SYMBOL_FILL
$SYMBOL_SQUARE";
}
{
category = "SF-Symbol";
color = 3;
glyphname = iconStar.large;
layers = (
{
layerId = m01;
metricWidth = "=baseSymbol.large";
shapes = (
{
closed = 1;
nodes = (
(720,-81,l),
(979,-196,ls),
(1105,-252,o),
(1132,-204,o),
(1121,-92,cs),
(1093,190,l),
(1282,401,ls),
(1366,495,o),
(1337,543,o),
(1228,566,cs),
(950,625,l),
(808,872,ls),
(773,933,o),
(755,951,o),
(720,951,cs),
(685,951,o),
(667,933,o),
(632,872,cs),
(490,625,l),
(212,566,ls),
(94,541,o),
(80,488,o),
(158,401,cs),
(347,190,l),
(319,-92,ls),
(308,-204,o),
(335,-252,o),
(461,-196,cs)
);
},
{
closed = 1;
nodes = (
(400,-131,o),
(398,-134,o),
(399,-124,cs),
(430,172,ls),
(433,199,o),
(434,217,o),
(404,251,cs),
(204,474,ls),
(201,477,o),
(202,479,o),
(209,481,cs),
(498,545,ls),
(529,552,o),
(545,557,o),
(565,592,cs),
(715,853,ls),
(716,855,o),
(718,857,o),
(720,857,cs),
(722,857,o),
(723,855,o),
(724,853,cs),
(875,592,ls),
(894,559,o),
(909,552,o),
(942,545,cs),
(1231,481,ls),
(1236,480,o),
(1240,478,o),
(1236,474,cs),
(1036,251,ls),
(1006,218,o),
(1007,202,o),
(1010,172,cs),
(1041,-124,ls),
(1042,-134,o),
(1038,-131,o),
(1034,-129,cs),
(760,-9,ls),
(744,-2,o),
(732,2,o),
(720,2,cs),
(708,2,o),
(696,-2,o),
(680,-9,cs),
(406,-129,ls)
);
}
);
userData = {
RMXScaler = {
height = 150;
verticalShift = -170;
width = 150;
};
};
width = 1440;
},
{
layerId = "94F54C43-8AEE-4ED6-B3C2-2A9D33534E61";
metricWidth = "=baseSymbol.large";
shapes = (
{
closed = 1;
nodes = (
(720,-116,l),
(966,-225,ls),
(1108,-288,o),
(1168,-233,o),
(1153,-89,cs),
(1125,178,l),
(1306,380,ls),
(1409,495,o),
(1364,569,o),
(1234,597,cs),
(971,654,l),
(835,889,ls),
(798,953,o),
(771,983,o),
(720,983,cs),
(669,983,o),
(642,953,o),
(605,889,cs),
(469,654,l),
(206,597,ls),
(77,569,o),
(30,496,o),
(134,380,cs),
(315,178,l),
(287,-89,ls),
(272,-233,o),
(332,-288,o),
(474,-225,cs)
);
},
{
closed = 1;
nodes = (
(438,-80,o),
(436,-80,o),
(437,-70,cs),
(462,168,ls),
(466,206,o),
(464,232,o),
(428,272,cs),
(267,451,ls),
(262,457,o),
(262,460,o),
(271,462,cs),
(505,513,ls),
(546,522,o),
(569,534,o),
(593,576,cs),
(711,782,ls),
(715,789,o),
(718,792,o),
(720,792,cs),
(722,792,o),
(724,789,o),
(728,782,cs),
(847,576,ls),
(870,536,o),
(892,522,o),
(935,513,cs),
(1169,462,ls),
(1178,460,o),
(1178,456,o),
(1173,451,cs),
(1012,272,ls),
(978,234,o),
(974,210,o),
(978,168,cs),
(1003,-70,ls),
(1004,-80,o),
(1002,-80,o),
(995,-77,cs),
(773,20,ls),
(750,30,o),
(735,34,o),
(720,34,cs),
(705,34,o),
(690,30,o),
(667,20,cs),
(445,-77,ls)
);
}
);
userData = {
RMXScaler = {
height = 150;
verticalShift = -170;
width = 150;
};
};
width = 1440;
}
);
note = "# Required RMX Scaler

$SYMBOL_ICON
$SYMBOL_LARGE
$SYMBOL_OUTLINE";
subCategory = Other;
userData = {
RMXScaler = {
source = iconStar.small;
};
};
}
{
category = "SF-Symbol";
glyphname = iconStar.small;
layers = (
{
background = {
shapes = (
{
attr = {
strokeWidth = 136;
};
closed = 1;
nodes = (
(464,82,ls),
(478,88,o),
(482,88,o),
(496,82,cs),
(664,8,ls),
(718,-16,o),
(726,-13,o),
(720,49,cs),
(701,231,ls),
(699,247,o),
(700,249,o),
(711,262,cs),
(834,399,ls),
(871,440,o),
(872,451,o),
(812,464,cs),
(633,503,ls),
(617,506,o),
(615,508,o),
(607,522,cs),
(515,681,ls),
(499,707,o),
(491,720,o),
(480,720,cs),
(469,720,o),
(461,707,o),
(445,681,cs),
(353,522,ls),
(345,508,o),
(343,506,o),
(327,503,cs),
(148,464,ls),
(88,451,o),
(89,440,o),
(126,399,cs),
(249,262,ls),
(260,249,o),
(261,247,o),
(259,231,cs),
(240,49,ls),
(234,-13,o),
(242,-16,o),
(296,8,cs)
);
}
);
};
layerId = "94F54C43-8AEE-4ED6-B3C2-2A9D33534E61";
shapes = (
{
closed = 1;
nodes = (
(480,15,l),
(636,-54,ls),
(740,-100,o),
(801,-60,o),
(788,56,cs),
(769,225,l),
(885,354,ls),
(965,442,o),
(927,508,o),
(826,530,cs),
(660,567,l),
(573,716,ls),
(548,759,o),
(525,788,o),
(480,788,cs),
(435,788,o),
(412,759,o),
(387,716,cs),
(300,567,l),
(134,530,ls),
(33,508,o),
(-5,442,o),
(75,354,cs),
(191,225,l),
(172,56,ls),
(159,-60,o),
(220,-100,o),
(324,-54,cs)
);
},
{
closed = 1;
nodes = (
(315,91,o),
(313,92,o),
(314,99,cs),
(327,223,ls),
(331,258,o),
(324,280,o),
(300,307,cs),
(216,400,ls),
(211,406,o),
(212,409,o),
(218,410,cs),
(341,436,ls),
(376,443,o),
(394,457,o),
(412,488,cs),
(472,592,ls),
(476,599,o),
(478,602,o),
(480,602,cs),
(482,602,o),
(484,599,o),
(488,592,cs),
(548,488,ls),
(566,457,o),
(584,443,o),
(619,436,cs),
(742,410,ls),
(748,409,o),
(749,406,o),
(744,400,cs),
(660,307,ls),
(636,280,o),
(629,258,o),
(633,223,cs),
(646,99,ls),
(647,92,o),
(645,91,o),
(640,93,cs),
(523,144,ls),
(507,151,o),
(493,155,o),
(480,155,cs),
(467,155,o),
(454,151,o),
(437,144,cs),
(320,93,ls)
);
}
);
width = 960;
},
{
background = {
shapes = (
{
attr = {
strokeWidth = 72;
};
closed = 1;
nodes = (
(464,82,ls),
(478,88,o),
(482,88,o),
(496,82,cs),
(664,8,ls),
(718,-16,o),
(726,-13,o),
(720,49,cs),
(701,231,ls),
(699,247,o),
(700,249,o),
(711,262,cs),
(834,399,ls),
(871,440,o),
(872,451,o),
(812,464,cs),
(633,503,ls),
(617,506,o),
(615,508,o),
(607,522,cs),
(515,681,ls),
(499,707,o),
(491,720,o),
(480,720,cs),
(469,720,o),
(461,707,o),
(445,681,cs),
(353,522,ls),
(345,508,o),
(343,506,o),
(327,503,cs),
(148,464,ls),
(88,451,o),
(89,440,o),
(126,399,cs),
(249,262,ls),
(260,249,o),
(261,247,o),
(259,231,cs),
(240,49,ls),
(234,-13,o),
(242,-16,o),
(296,8,cs)
);
}
);
};
layerId = m01;
name = Regular;
shapes = (
{
closed = 1;
nodes = (
(480,50,l),
(649,-25,ls),
(737,-64,o),
(764,-31,o),
(756,53,cs),
(737,237,l),
(861,375,ls),
(921,441,o),
(901,482,o),
(820,499,cs),
(639,538,l),
(546,699,ls),
(521,740,o),
(507,756,o),
(480,756,cs),
(453,756,o),
(439,740,o),
(414,699,cs),
(321,538,l),
(140,499,ls),
(59,482,o),
(39,441,o),
(99,375,cs),
(223,237,l),
(204,53,ls),
(196,-31,o),
(223,-64,o),
(311,-25,cs)
);
},
{
closed = 1;
nodes = (
(277,39,o),
(275,39,o),
(276,45,cs),
(295,227,ls),
(298,251,o),
(296,263,o),
(276,286,cs),
(153,423,ls),
(150,426,o),
(151,428,o),
(156,429,cs),
(334,468,ls),
(358,472,o),
(370,479,o),
(384,504,cs),
(476,663,ls),
(477,665,o),
(479,667,o),
(480,667,cs),
(481,667,o),
(483,665,o),
(484,663,cs),
(576,504,ls),
(590,479,o),
(602,472,o),
(626,468,cs),
(804,429,ls),
(809,428,o),
(810,426,o),
(807,423,cs),
(684,286,ls),
(664,263,o),
(662,251,o),
(665,227,cs),
(684,45,ls),
(685,39,o),
(683,39,o),
(679,41,cs),
(510,115,ls),
(498,120,o),
(489,123,o),
(480,123,cs),
(471,123,o),
(462,120,o),
(450,115,cs),
(281,41,ls)
);
}
);
width = 960;
},
{
associatedMasterId = "94F54C43-8AEE-4ED6-B3C2-2A9D33534E61";
background = {
shapes = (
{
attr = {
strokeWidth = 136;
};
closed = 1;
nodes = (
(464,82,ls),
(478,88,o),
(482,88,o),
(496,82,cs),
(664,8,ls),
(718,-16,o),
(726,-13,o),
(720,49,cs),
(701,231,ls),
(699,247,o),
(700,249,o),
(711,262,cs),
(834,399,ls),
(871,440,o),
(872,451,o),
(812,464,cs),
(633,503,ls),
(617,506,o),
(615,508,o),
(607,522,cs),
(515,681,ls),
(499,707,o),
(491,720,o),
(480,720,cs),
(469,720,o),
(461,707,o),
(445,681,cs),
(353,522,ls),
(345,508,o),
(343,506,o),
(327,503,cs),
(148,464,ls),
(88,451,o),
(89,440,o),
(126,399,cs),
(249,262,ls),
(260,249,o),
(261,247,o),
(259,231,cs),
(240,49,ls),
(234,-13,o),
(242,-16,o),
(296,8,cs)
);
}
);
};
layerId = "BFE4880F-86B9-46BB-8823-E48CC6024744";
name = "Sep 25, 23 15:18";
shapes = (
{
closed = 1;
nodes = (
(491,20,l),
(492,20,o),
(468,20,o),
(469,20,c),
(636,-54,ls),
(740,-100,o),
(799,-60,o),
(788,56,cs),
(769,239,ls),
(770,224,o),
(763,218,o),
(763,218,c),
(885,354,ls),
(965,442,o),
(927,509,o),
(826,530,cs),
(647,570,ls),
(662,567,o),
(664,560,o),
(666,556,cs),
(573,716,ls),
(547,758,o),
(525,788,o),
(480,788,cs),
(435,788,o),
(413,758,o),
(387,716,cs),
(294,556,ls),
(296,560,o),
(298,567,o),
(313,570,cs),
(134,530,ls),
(33,509,o),
(-5,442,o),
(75,354,cs),
(197,218,l),
(190,221,l),
(172,56,ls),
(161,-60,o),
(220,-100,o),
(324,-54,cs)
);
},
{
closed = 1;
nodes = (
(327,223,ls),
(331,258,o),
(324,279,o),
(300,307,cs),
(177,444,ls),
(155,469,o),
(161,397,o),
(162,398,c),
(341,436,ls),
(376,443,o),
(394,457,o),
(412,488,cs),
(511,659,l),
(492,654,o),
(483,652,o),
(480,652,cs),
(477,652,o),
(468,654,o),
(449,659,c),
(548,488,ls),
(566,457,o),
(584,443,o),
(619,436,cs),
(798,398,l),
(799,397,o),
(805,469,o),
(783,444,cs),
(660,307,ls),
(636,279,o),
(629,258,o),
(633,223,cs),
(652,42,ls),
(653,32,o),
(720,57,o),
(692,70,cs),
(523,144,ls),
(492,158,o),
(468,158,o),
(437,144,cs),
(268,70,ls),
(240,57,o),
(307,32,o),
(308,42,cs)
);
}
);
width = 960;
}
);
metricWidth = baseSymbol;
note = "$SYMBOL_SMALL
$SYMBOL_OUTLINE";
subCategory = Other;
}
{
category = "SF-Symbol";
color = 3;
glyphname = iconStarFill.large;
layers = (
{
layerId = m01;
metricWidth = "=baseSymbol.large";
shapes = (
{
closed = 1;
nodes = (
(720,-81,l),
(979,-196,ls),
(1105,-252,o),
(1132,-204,o),
(1121,-92,cs),
(1093,190,l),
(1282,401,ls),
(1366,495,o),
(1337,543,o),
(1228,566,cs),
(950,625,l),
(808,872,ls),
(773,933,o),
(755,951,o),
(720,951,cs),
(685,951,o),
(667,933,o),
(632,872,cs),
(490,625,l),
(212,566,ls),
(94,541,o),
(80,488,o),
(158,401,cs),
(347,190,l),
(319,-92,ls),
(308,-204,o),
(335,-252,o),
(461,-196,cs)
);
}
);
userData = {
RMXScaler = {
height = 150;
verticalShift = -170;
width = 150;
};
};
width = 1440;
},
{
layerId = "94F54C43-8AEE-4ED6-B3C2-2A9D33534E61";
metricWidth = "=baseSymbol.large";
shapes = (
{
closed = 1;
nodes = (
(720,-116,l),
(966,-225,ls),
(1108,-288,o),
(1168,-233,o),
(1153,-89,cs),
(1125,178,l),
(1306,380,ls),
(1409,495,o),
(1364,569,o),
(1234,597,cs),
(971,654,l),
(835,889,ls),
(798,953,o),
(771,983,o),
(720,983,cs),
(669,983,o),
(642,953,o),
(605,889,cs),
(469,654,l),
(206,597,ls),
(77,569,o),
(30,496,o),
(134,380,cs),
(315,178,l),
(287,-89,ls),
(272,-233,o),
(332,-288,o),
(474,-225,cs)
);
}
);
userData = {
RMXScaler = {
height = 150;
verticalShift = -170;
width = 150;
};
};
width = 1440;
}
);
note = "# Required RMX Scaler

$SYMBOL_LARGE
$SYMBOL_FILL";
subCategory = Other;
userData = {
RMXScaler = {
source = iconStarFill.small;
};
};
}
{
category = "SF-Symbol";
glyphname = iconStarFill.small;
layers = (
{
layerId = "94F54C43-8AEE-4ED6-B3C2-2A9D33534E61";
shapes = (
{
closed = 1;
nodes = (
(480,15,l),
(636,-54,ls),
(740,-100,o),
(801,-60,o),
(788,56,cs),
(769,225,l),
(885,354,ls),
(965,442,o),
(927,508,o),
(826,530,cs),
(660,567,l),
(573,716,ls),
(548,759,o),
(525,788,o),
(480,788,cs),
(435,788,o),
(412,759,o),
(387,716,cs),
(300,567,l),
(134,530,ls),
(33,508,o),
(-5,442,o),
(75,354,cs),
(191,225,l),
(172,56,ls),
(159,-60,o),
(220,-100,o),
(324,-54,cs)
);
}
);
width = 960;
},
{
layerId = m01;
name = Regular;
shapes = (
{
closed = 1;
nodes = (
(480,50,l),
(649,-25,ls),
(737,-64,o),
(764,-31,o),
(756,53,cs),
(737,237,l),
(861,375,ls),
(921,441,o),
(901,482,o),
(820,499,cs),
(639,538,l),
(546,699,ls),
(521,740,o),
(507,756,o),
(480,756,cs),
(453,756,o),
(439,740,o),
(414,699,cs),
(321,538,l),
(140,499,ls),
(59,482,o),
(39,441,o),
(99,375,cs),
(223,237,l),
(204,53,ls),
(196,-31,o),
(223,-64,o),
(311,-25,cs)
);
}
);
width = 960;
},
{
associatedMasterId = "94F54C43-8AEE-4ED6-B3C2-2A9D33534E61";
background = {
shapes = (
{
attr = {
strokeWidth = 136;
};
closed = 1;
nodes = (
(464,82,ls),
(478,88,o),
(482,88,o),
(496,82,cs),
(664,8,ls),
(718,-16,o),
(726,-13,o),
(720,49,cs),
(701,231,ls),
(699,247,o),
(700,249,o),
(711,262,cs),
(834,399,ls),
(871,440,o),
(872,451,o),
(812,464,cs),
(633,503,ls),
(617,506,o),
(615,508,o),
(607,522,cs),
(515,681,ls),
(499,707,o),
(491,720,o),
(480,720,cs),
(469,720,o),
(461,707,o),
(445,681,cs),
(353,522,ls),
(345,508,o),
(343,506,o),
(327,503,cs),
(148,464,ls),
(88,451,o),
(89,440,o),
(126,399,cs),
(249,262,ls),
(260,249,o),
(261,247,o),
(259,231,cs),
(240,49,ls),
(234,-13,o),
(242,-16,o),
(296,8,cs)
);
}
);
};
layerId = "BFE4880F-86B9-46BB-8823-E48CC6024744";
name = "Sep 25, 23 15:18";
shapes = (
{
closed = 1;
nodes = (
(491,20,l),
(492,20,o),
(468,20,o),
(469,20,c),
(636,-54,ls),
(740,-100,o),
(799,-60,o),
(788,56,cs),
(769,239,ls),
(770,224,o),
(763,218,o),
(763,218,c),
(885,354,ls),
(965,442,o),
(927,509,o),
(826,530,cs),
(647,570,ls),
(662,567,o),
(664,560,o),
(666,556,cs),
(573,716,ls),
(547,758,o),
(525,788,o),
(480,788,cs),
(435,788,o),
(413,758,o),
(387,716,cs),
(294,556,ls),
(296,560,o),
(298,567,o),
(313,570,cs),
(134,530,ls),
(33,509,o),
(-5,442,o),
(75,354,cs),
(197,218,l),
(190,221,l),
(172,56,ls),
(161,-60,o),
(220,-100,o),
(324,-54,cs)
);
},
{
closed = 1;
nodes = (
(327,223,ls),
(331,258,o),
(324,279,o),
(300,307,cs),
(177,444,ls),
(155,469,o),
(161,397,o),
(162,398,c),
(341,436,ls),
(376,443,o),
(394,457,o),
(412,488,cs),
(511,659,l),
(492,654,o),
(483,652,o),
(480,652,cs),
(477,652,o),
(468,654,o),
(449,659,c),
(548,488,ls),
(566,457,o),
(584,443,o),
(619,436,cs),
(798,398,l),
(799,397,o),
(805,469,o),
(783,444,cs),
(660,307,ls),
(636,279,o),
(629,258,o),
(633,223,cs),
(652,42,ls),
(653,32,o),
(720,57,o),
(692,70,cs),
(523,144,ls),
(492,158,o),
(468,158,o),
(437,144,cs),
(268,70,ls),
(240,57,o),
(307,32,o),
(308,42,cs)
);
}
);
width = 960;
}
);
metricWidth = baseSymbol;
note = "$SYMBOL_ICON
$SYMBOL_SMALL
$SYMBOL_FILL";
subCategory = Other;
}
{
category = "SF-Symbol";
color = 3;
glyphname = iconTriangleExclamation.large;
layers = (
{
layerId = m01;
metricWidth = "=baseSymbol.large";
shapes = (
{
closed = 1;
nodes = (
(1110,-181,ls),
(1188,-181,o),
(1244,-163,o),
(1280,-102,cs),
(1314,-44,o),
(1310,13,o),
(1266,88,cs),
(876,754,ls),
(835,824,o),
(790,861,o),
(720,861,cs),
(651,861,o),
(606,824,o),
(565,754,cs),
(175,88,ls),
(134,18,o),
(125,-39,o),
(159,-99,cs),
(193,-159,o),
(245,-181,o),
(330,-181,cs)
);
},
{
closed = 1;
nodes = (
(760,2,o),
(792,35,o),
(792,74,cs),
(792,114,o),
(761,146,o),
(720,146,cs),
(680,146,o),
(648,115,o),
(648,74,cs),
(648,35,o),
(680,2,o),
(720,2,cs)
);
},
{
closed = 1;
nodes = (
(270,-99,o),
(248,-90,o),
(231,-60,cs),
(214,-30,o),
(216,-6,o),
(246,46,cs),
(636,712,ls),
(667,765,o),
(687,779,o),
(720,779,cs),
(754,779,o),
(774,765,o),
(805,712,cs),
(1195,46,ls),
(1227,-9,o),
(1225,-32,o),
(1211,-58,cs),
(1195,-88,o),
(1175,-99,o),
(1110,-99,cs),
(330,-99,ls)
);
},
{
closed = 1;
nodes = (
(770,216,l),
(770,566,l),
(670,566,l),
(670,216,l)
);
}
);
userData = {
RMXScaler = {
height = 150;
verticalShift = -170;
width = 150;
};
};
width = 1440;
},
{
layerId = "94F54C43-8AEE-4ED6-B3C2-2A9D33534E61";
metricWidth = "=baseSymbol.large";
shapes = (
{
closed = 1;
nodes = (
(1110,-213,ls),
(1218,-213,o),
(1274,-177,o),
(1309,-116,cs),
(1345,-53,o),
(1346,15,o),
(1294,104,cs),
(904,770,ls),
(849,864,o),
(788,893,o),
(720,893,cs),
(653,893,o),
(592,864,o),
(537,770,cs),
(147,104,ls),
(95,15,o),
(95,-53,o),
(133,-118,cs),
(171,-183,o),
(232,-213,o),
(330,-213,cs)
);
},
{
closed = 1;
nodes = (
(760,22,o),
(792,55,o),
(792,94,cs),
(792,134,o),
(761,166,o),
(720,166,cs),
(680,166,o),
(648,135,o),
(648,94,cs),
(648,55,o),
(680,22,o),
(720,22,cs)
);
},
{
closed = 1;
nodes = (
(286,-67,o),
(268,-61,o),
(259,-44,cs),
(248,-24,o),
(255,-3,o),
(274,30,cs),
(664,696,ls),
(688,737,o),
(702,747,o),
(720,747,cs),
(739,747,o),
(753,737,o),
(777,696,cs),
(1167,30,ls),
(1190,-9,o),
(1191,-26,o),
(1182,-43,cs),
(1173,-60,o),
(1158,-67,o),
(1110,-67,cs),
(330,-67,ls)
);
},
{
closed = 1;
nodes = (
(780,226,l),
(780,526,l),
(660,526,l),
(660,226,l)
);
}
);
userData = {
RMXScaler = {
height = 150;
verticalShift = -170;
width = 150;
};
};
width = 1440;
}
);
note = "# Required RMX Scaler

$SYMBOL_ICON
$SYMBOL_LARGE
$SYMBOL_OUTLINE";
subCategory = Other;
userData = {
RMXScaler = {
source = iconTriangleExclamation.small;
};
};
}
{
category = "SF-Symbol";
glyphname = iconTriangleExclamation.small;
layers = (
{
background = {
shapes = (
{
attr = {
strokeWidth = 72;
};
closed = 1;
nodes = (
(740,20,ls),
(790,20,o),
(814,32,o),
(830,60,cs),
(846,88,o),
(845,115,o),
(820,158,cs),
(560,602,ls),
(535,645,o),
(512,660,o),
(480,660,cs),
(448,660,o),
(425,645,o),
(400,602,cs),
(140,158,ls),
(115,115,o),
(114,88,o),
(130,60,cs),
(146,32,o),
(170,20,o),
(220,20,cs)
);
}
);
};
layerId = m01;
shapes = (
{
closed = 1;
nodes = (
(740,-16,ls),
(802,-16,o),
(838,2,o),
(861,42,cs),
(884,82,o),
(882,123,o),
(851,176,cs),
(591,620,ls),
(560,673,o),
(526,696,o),
(480,696,cs),
(434,696,o),
(400,673,o),
(369,620,cs),
(109,176,ls),
(78,123,o),
(76,82,o),
(99,42,cs),
(122,2,o),
(158,-16,o),
(220,-16,cs)
);
},
{
closed = 1;
nodes = (
(507,120,o),
(528,142,o),
(528,168,cs),
(528,195,o),
(507,216,o),
(480,216,cs),
(453,216,o),
(432,195,o),
(432,168,cs),
(432,142,o),
(453,120,o),
(480,120,cs)
);
},
{
closed = 1;
nodes = (
(182,56,o),
(170,62,o),
(161,78,cs),
(152,94,o),
(152,108,o),
(171,140,cs),
(431,584,ls),
(450,617,o),
(462,624,o),
(480,624,cs),
(498,624,o),
(510,617,o),
(529,584,cs),
(789,140,ls),
(808,108,o),
(808,94,o),
(799,78,cs),
(790,62,o),
(778,56,o),
(740,56,cs),
(220,56,ls)
);
},
{
closed = 1;
nodes = (
(516,260,l),
(516,480,l),
(444,480,l),
(444,260,l)
);
}
);
width = 960;
},
{
background = {
shapes = (
{
attr = {
strokeWidth = 136;
};
closed = 1;
nodes = (
(740,20,ls),
(790,20,o),
(814,32,o),
(830,60,cs),
(846,88,o),
(845,115,o),
(820,158,cs),
(560,602,ls),
(535,645,o),
(512,660,o),
(480,660,cs),
(448,660,o),
(425,645,o),
(400,602,cs),
(140,158,ls),
(115,115,o),
(114,88,o),
(130,60,cs),
(146,32,o),
(170,20,o),
(220,20,cs)
);
}
);
};
layerId = "94F54C43-8AEE-4ED6-B3C2-2A9D33534E61";
shapes = (
{
closed = 1;
nodes = (
(740,-48,ls),
(823,-48,o),
(864,-17,o),
(889,26,cs),
(913,69,o),
(921,120,o),
(879,192,cs),
(619,636,ls),
(577,708,o),
(529,728,o),
(480,728,cs),
(431,728,o),
(383,708,o),
(341,636,cs),
(81,192,ls),
(39,120,o),
(47,69,o),
(71,26,cs),
(96,-17,o),
(137,-48,o),
(220,-48,cs)
);
},
{
closed = 1;
nodes = (
(507,140,o),
(528,162,o),
(528,188,cs),
(528,215,o),
(507,236,o),
(480,236,cs),
(453,236,o),
(432,215,o),
(432,188,cs),
(432,162,o),
(453,140,o),
(480,140,cs)
);
},
{
closed = 1;
nodes = (
(199,88,o),
(191,90,o),
(189,94,cs),
(187,99,o),
(189,107,o),
(199,124,cs),
(459,568,ls),
(470,586,o),
(475,592,o),
(480,592,cs),
(485,592,o),
(490,586,o),
(501,568,cs),
(761,124,ls),
(772,107,o),
(774,100,o),
(771,94,cs),
(768,90,o),
(761,88,o),
(740,88,cs),
(220,88,ls)
);
},
{
closed = 1;
nodes = (
(526,270,l),
(526,440,l),
(434,440,l),
(434,270,l)
);
}
);
width = 960;
}
);
metricWidth = baseSymbol;
note = "$SYMBOL_SMALL
$SYMBOL_OUTLINE";
subCategory = Other;
}
{
category = "SF-Symbol";
color = 3;
glyphname = iconTriangleExclamationFill.large;
layers = (
{
layerId = m01;
metricWidth = "=baseSymbol.large";
shapes = (
{
closed = 1;
nodes = (
(1110,-181,ls),
(1188,-181,o),
(1244,-163,o),
(1280,-102,cs),
(1314,-44,o),
(1310,13,o),
(1266,88,cs),
(876,754,ls),
(835,824,o),
(790,861,o),
(720,861,cs),
(651,861,o),
(606,824,o),
(565,754,cs),
(175,88,ls),
(134,18,o),
(125,-39,o),
(159,-99,cs),
(193,-159,o),
(245,-181,o),
(330,-181,cs)
);
},
{
closed = 1;
nodes = (
(680,18,o),
(648,51,o),
(648,90,cs),
(648,131,o),
(680,162,o),
(720,162,cs),
(761,162,o),
(792,130,o),
(792,90,cs),
(792,51,o),
(760,18,o),
(720,18,cs)
);
},
{
closed = 1;
nodes = (
(670,542,l),
(770,542,l),
(770,228,l),
(670,228,l)
);
}
);
userData = {
RMXScaler = {
height = 150;
verticalShift = -170;
width = 150;
};
};
width = 1440;
},
{
layerId = "94F54C43-8AEE-4ED6-B3C2-2A9D33534E61";
metricWidth = "=baseSymbol.large";
shapes = (
{
closed = 1;
nodes = (
(1110,-213,ls),
(1218,-213,o),
(1274,-177,o),
(1309,-116,cs),
(1345,-53,o),
(1346,15,o),
(1294,104,cs),
(904,770,ls),
(849,864,o),
(788,893,o),
(720,893,cs),
(653,893,o),
(592,864,o),
(537,770,cs),
(147,104,ls),
(95,15,o),
(95,-53,o),
(133,-118,cs),
(171,-183,o),
(232,-213,o),
(330,-213,cs)
);
},
{
closed = 1;
nodes = (
(680,-2,o),
(648,31,o),
(648,70,cs),
(648,111,o),
(680,142,o),
(720,142,cs),
(761,142,o),
(792,110,o),
(792,70,cs),
(792,31,o),
(760,-2,o),
(720,-2,cs)
);
},
{
closed = 1;
nodes = (
(660,562,l),
(780,562,l),
(780,208,l),
(660,208,l)
);
}
);
userData = {
RMXScaler = {
height = 150;
verticalShift = -170;
width = 150;
};
};
width = 1440;
}
);
note = "# Required RMX Scaler

$SYMBOL_LARGE
$SYMBOL_FILL";
subCategory = Other;
userData = {
RMXScaler = {
source = iconTriangleExclamationFill.small;
};
};
}
{
category = "SF-Symbol";
glyphname = iconTriangleExclamationFill.small;
layers = (
{
layerId = m01;
shapes = (
{
closed = 1;
nodes = (
(740,-16,ls),
(802,-16,o),
(838,2,o),
(861,42,cs),
(884,82,o),
(882,123,o),
(851,176,cs),
(591,620,ls),
(560,673,o),
(526,696,o),
(480,696,cs),
(434,696,o),
(400,673,o),
(369,620,cs),
(109,176,ls),
(78,123,o),
(76,82,o),
(99,42,cs),
(122,2,o),
(158,-16,o),
(220,-16,cs)
);
},
{
closed = 1;
nodes = (
(453,120,o),
(432,142,o),
(432,168,cs),
(432,195,o),
(453,216,o),
(480,216,cs),
(507,216,o),
(528,195,o),
(528,168,cs),
(528,142,o),
(507,120,o),
(480,120,cs)
);
},
{
closed = 1;
nodes = (
(444,480,l),
(516,480,l),
(516,260,l),
(444,260,l)
);
}
);
width = 960;
},
{
layerId = "94F54C43-8AEE-4ED6-B3C2-2A9D33534E61";
shapes = (
{
closed = 1;
nodes = (
(740,-48,ls),
(823,-48,o),
(864,-17,o),
(889,26,cs),
(913,69,o),
(921,120,o),
(879,192,cs),
(619,636,ls),
(577,708,o),
(529,728,o),
(480,728,cs),
(431,728,o),
(383,708,o),
(341,636,cs),
(81,192,ls),
(39,120,o),
(47,69,o),
(71,26,cs),
(96,-17,o),
(137,-48,o),
(220,-48,cs)
);
},
{
closed = 1;
nodes = (
(453,100,o),
(432,122,o),
(432,148,cs),
(432,175,o),
(453,196,o),
(480,196,cs),
(507,196,o),
(528,175,o),
(528,148,cs),
(528,122,o),
(507,100,o),
(480,100,cs)
);
},
{
closed = 1;
nodes = (
(434,500,l),
(526,500,l),
(526,240,l),
(434,240,l)
);
}
);
width = 960;
}
);
metricWidth = baseSymbol;
note = "$SYMBOL_SMALL
$SYMBOL_FILL";
subCategory = Other;
}
